<svg width="69" height="37" viewBox="0 0 69 37" fill="none" xmlns="http://www.w3.org/2000/svg">
<g clip-path="url(#clip0_82_19)">
<path d="M23.0492 19.6686C22.3424 21.3649 21.567 23.0369 20.9495 24.7635C20.1975 26.8144 19.2818 28.8035 18.2105 30.7121C17.9685 31.1521 17.5951 31.4386 17.073 31.3175C16.5508 31.1965 16.3745 30.7817 16.3795 30.2661C16.3991 28.263 16.8832 26.3539 17.5674 24.485C17.7397 24.0137 18.0311 23.5768 18.028 22.9502C17.5859 23.2942 17.352 23.6837 17.1047 24.0602C15.4573 26.6011 13.8222 29.1541 12.0661 31.6223C11.7985 31.9978 11.4634 32.322 11.0773 32.5789C10.0515 33.2722 10.0514 33.2742 9.60418 32.0421C8.76099 33.1027 7.75784 33.921 6.8346 34.8262C5.88061 35.7596 4.86098 36.5971 3.46181 36.8675C1.58974 37.2288 0.152617 36.1784 0.0428569 34.2863C-0.157171 30.815 0.350592 27.4477 1.40715 24.1247C2.77555 19.8361 4.93586 16.0208 7.97835 12.6746C9.50366 10.9965 11.2157 9.64736 13.5269 9.14281C15.2153 8.77147 16.279 10.0964 16.3324 11.3911C16.4052 13.1893 15.922 14.8028 15.1096 16.4224C14.1463 18.3199 13.0315 20.1392 11.7758 21.8634C11.0445 22.8775 10.0627 23.6666 9.28725 24.6364C9.13338 24.8291 8.92511 24.9916 8.69845 24.7817C8.50659 24.6041 8.67277 24.4063 8.80103 24.2519C9.08529 23.8873 9.38976 23.5383 9.71292 23.2065C12.2272 20.7918 13.7823 17.7715 15.2337 14.6968C15.7733 13.5525 15.7774 12.2861 15.6697 11.057C15.5845 10.0873 14.688 9.51214 13.6756 9.7452C12.3964 10.0479 11.1635 10.5202 10.1787 11.4163C7.70488 13.6543 5.65797 16.3098 4.13472 19.2569C2.82274 21.7877 1.76413 24.3962 1.22969 27.1591C0.79168 29.4235 0.399831 31.7222 0.664484 34.0764C0.875795 35.9563 2.19291 36.8948 4.12446 36.0199C4.57732 35.8214 4.99935 35.5608 5.37798 35.246C6.97821 33.8716 8.57125 32.4851 9.80524 30.7585C9.94057 30.5689 10.0521 30.3639 10.1376 30.1481C10.9268 28.1132 11.9771 26.1861 13.2632 24.4133C14.6087 22.6048 16.2014 20.9874 17.9962 19.6071C18.6814 19.0753 19.2651 18.4093 20.1985 18.2953C20.5063 18.2569 20.8458 18.0641 21.0459 18.4658C21.0898 18.542 21.118 18.6259 21.1289 18.713C21.1397 18.7999 21.133 18.8881 21.109 18.9725C21.0851 19.0569 21.0445 19.1358 20.9894 19.2047C20.9344 19.2736 20.866 19.3311 20.7884 19.3739C19.8918 19.9118 19.5379 20.8008 19.2333 21.6949C18.3532 24.265 17.2012 26.7656 17.0422 29.5315C17.0218 29.7036 17.018 29.8773 17.0309 30.0501C17.0648 30.2863 16.9335 30.6475 17.2956 30.6899C17.5459 30.7202 17.628 30.4145 17.7367 30.2126C20.0836 25.8675 21.7065 21.2246 23.4883 16.6474C23.7591 15.9502 24.1028 15.2826 24.514 14.6554C24.6228 14.4899 24.7438 14.274 24.988 14.3659C25.3101 14.4879 25.1531 14.7321 25.0905 14.9491C24.3506 17.6622 23.6144 20.3774 22.882 23.0945C22.8441 23.2378 22.7148 23.4033 22.9333 23.6717C23.6076 21.3913 24.5909 19.2106 25.8568 17.1883C26.4907 16.1792 27.2242 15.042 28.3351 14.7362C29.5322 14.4062 30.2933 13.5909 31.2832 13.055C31.9274 12.7059 32.2064 12.1842 32.2731 11.4597C32.4248 9.95001 32.7341 8.45984 33.1963 7.01259C33.3245 6.60895 33.504 5.95811 34.0251 6.06911C34.4991 6.17001 34.4221 6.836 34.458 7.26991C34.4939 7.70385 34.4159 8.12662 34.3421 8.54947C34.2057 9.33252 34.0343 10.1105 33.8394 11.0812C35.1843 10.0822 36.3598 9.16396 37.5867 8.32343C37.957 8.06809 38.4073 7.29413 38.8176 7.82494C39.1346 8.22857 38.2904 8.50402 37.9396 8.78559C36.6512 9.81786 35.3309 10.8108 34.0097 11.8028C33.7 12.0172 33.481 12.3361 33.3943 12.6988C32.2813 17.1913 31.3858 21.7181 31.0534 26.3418C31.0001 27.0824 31.2842 27.7545 31.3858 28.4608C31.4206 28.699 31.6094 29.0451 31.2647 29.1319C30.8462 29.2378 30.8811 28.809 30.7949 28.5597C30.0943 26.5416 30.6021 24.5234 30.8093 22.5102C30.9262 21.382 31.1478 20.263 31.2627 19.1217C30.6011 21.0127 29.8112 22.8482 29.0449 24.6928C28.6879 25.5536 28.2089 26.3418 27.5247 26.9815C27.1328 27.3468 26.6015 27.587 26.0886 27.3529C25.6085 27.1329 25.5635 26.6324 25.5152 26.1066C25.3511 24.3095 26.1173 22.7353 26.661 21.1156C27.2272 19.4305 28.0428 17.8291 28.493 16.0975C27.2826 15.8401 26.8826 16.7514 26.4189 17.4789C24.6935 20.1863 23.6052 23.154 22.8441 26.2509C22.7077 26.8241 22.5111 27.3818 22.2573 27.9149C22.1661 28.1026 22.0244 28.2792 21.7598 28.2055C21.4315 28.1127 21.4951 27.8079 21.5167 27.5516C21.6882 25.4345 22.085 23.341 22.7005 21.3053C22.8615 20.7796 23.0451 20.261 23.2133 19.7383L23.0492 19.6686ZM31.7263 13.5364C31.3365 13.8058 31.0442 13.9834 30.7805 14.1953C30.2482 14.6221 29.447 14.8492 29.2849 15.5707C28.7885 17.7392 27.7729 19.7211 27.0806 21.8149C26.619 23.2125 25.9276 24.5869 26.1738 26.1409C26.2096 26.3669 26.1604 26.6455 26.3953 26.7524C26.661 26.8735 26.901 26.705 27.097 26.5203C27.6123 26.0123 28.0294 25.4163 28.3279 24.7615C30.0389 21.2479 31.0001 17.5112 31.7263 13.5364ZM11.6732 28.5123C14.2552 25.4467 16.7662 22.3417 19.459 19.3831C16.0308 21.7554 13.3997 24.7757 11.6732 28.5123ZM15.5948 24.9038C14.0219 26.7733 12.449 28.6428 10.8762 30.5123C10.4597 31.0047 10.4567 31.5819 10.5141 32.2066C12.6005 30.0259 14.1269 27.483 15.5948 24.9038ZM33.8743 7.63822L33.5666 7.61094C33.5246 8.90257 32.944 10.1085 33.1184 11.4375L33.8743 7.63822Z" fill="#F6ECEB"/>
<path d="M68.0712 0.244516C67.8957 -0.231775 67.4926 0.113349 67.1941 0.23444C63.2346 1.84293 59.2084 3.28996 55.295 5.00239C53.9481 5.59069 52.6033 6.18303 51.1621 6.81876C51.2102 6.51603 51.2246 6.3465 51.2646 6.18303C51.6226 4.76021 51.9129 3.33034 51.8976 1.85202C51.8976 1.52709 51.8812 1.28389 51.5498 1.16078C51.196 1.02959 50.9888 1.24455 50.8379 1.50186C50.5917 1.92366 50.362 2.35555 50.2984 2.85404C50.1281 4.18906 49.8183 5.51097 49.8234 6.86416C49.8234 7.38889 49.607 7.70676 49.129 7.92166C47.6211 8.60082 46.1962 9.45346 44.6155 9.97617C44.4103 10.0448 44.1898 10.1346 44.236 10.3697C44.2863 10.628 44.5355 10.5928 44.7386 10.5514C45.1121 10.4863 45.4752 10.3733 45.8188 10.2154C47.0395 9.60991 48.2735 9.03876 49.6829 8.36873C49.5259 9.77435 49.4356 11.0267 49.2397 12.2628C48.7761 15.1821 48.3545 18.1155 46.6753 20.6846C46.5224 20.9188 46.4578 21.3194 46.11 21.2336C45.8023 21.1569 45.8403 20.7583 45.83 20.4929C45.7838 19.3123 45.9326 18.1458 46.147 16.9864C46.424 15.4535 46.4188 13.9056 46.4393 12.3587C46.4393 12.0206 46.3214 11.722 46.0044 11.5696C45.67 11.4071 45.3889 11.5857 45.1315 11.7916C44.9017 11.9722 44.6781 12.1508 44.5437 12.4182C43.9405 13.6291 43.2102 14.7754 42.9147 16.1195C42.8511 16.4142 42.8245 16.7553 42.4839 17.0691C42.6727 15.7947 42.8399 14.6372 43.0184 13.4818C43.0645 13.1851 43.1209 12.8763 42.7588 12.7603C42.3967 12.6442 42.21 12.9379 42.1023 13.1962C41.8972 13.7008 41.7299 14.2224 41.5637 14.7411C40.5933 17.7755 39.9081 20.8966 38.6208 23.8341C38.391 24.3557 38.0432 24.827 37.7427 25.3174C37.6689 25.4396 37.5683 25.5596 37.3981 25.5323C37.2278 25.5051 37.1795 25.3376 37.1806 25.2024C37.1867 24.2074 36.9478 23.1892 37.395 22.2316C38.2731 20.3537 39.0619 18.4344 40.0621 16.614C40.381 16.0348 40.7123 15.4525 40.8272 14.7916C40.8816 14.4798 41.1493 14.1195 40.6857 13.8834C40.222 13.6472 40.0045 13.9268 39.7625 14.2567C38.2761 16.2941 37.2513 18.5283 36.877 21.0176C36.601 22.8472 35.5906 24.3234 34.6079 25.8078C34.2899 26.2891 33.7257 27.0187 33.2354 26.826C32.702 26.61 33.0046 25.7998 33.0682 25.2235C33.0826 25.0924 33.1205 24.8795 33.1503 24.7503C34.0355 20.8471 35.8174 17.4394 38.8947 14.7532C39.0424 14.624 39.2773 14.508 39.1337 14.2729C38.9634 13.9944 38.7357 14.1377 38.5182 14.2608C38.0894 14.5016 37.7074 14.8152 37.3898 15.1871C35.5127 17.4142 33.9484 19.8219 33.0528 22.6019C32.6743 23.7775 32.3297 24.9723 32.3614 26.2205C32.3728 26.6786 32.2907 27.265 32.8743 27.4839C33.3954 27.6776 33.8263 27.3991 34.2192 27.0692C34.7556 26.6191 35.2449 26.1328 35.5906 25.5203C35.846 25.0692 36.1261 24.6322 36.4615 24.0803C36.5097 24.605 36.5364 24.9733 36.5785 25.3406C36.6277 25.7705 36.8072 26.1358 37.2688 26.2357C37.6945 26.3275 38.0002 26.0702 38.2146 25.7483C38.549 25.2438 38.9439 24.7523 39.148 24.1973C39.9502 22.0157 40.8919 19.8764 41.3443 17.5787C41.4469 17.0308 41.692 16.507 41.8705 15.9732C41.5279 17.8057 41.3658 19.6342 41.1299 21.4516C41.0857 21.7926 40.9904 22.1337 40.9976 22.4728C41.0037 22.7644 40.9555 23.1872 41.3802 23.2356C41.7412 23.277 41.8202 22.9117 41.8931 22.6403C41.9956 22.2801 42.0479 21.9107 42.1279 21.5464C42.7752 18.6301 43.4317 15.7169 44.9181 13.07C45.1089 12.73 45.2351 12.3374 45.7623 12.2628C45.8234 13.7893 45.7413 15.3182 45.5172 16.8299C45.312 18.1872 45.0279 19.5485 45.2792 20.9289C45.352 21.3326 45.3294 21.8784 45.9306 21.9047C46.4865 21.9289 46.9174 21.6827 47.1748 21.1347C47.6118 20.2023 48.2478 19.3688 48.6028 18.17C48.6694 19.4172 48.731 20.4435 48.9812 21.4495C49.1269 22.0368 49.3701 22.5646 50.0173 22.7069C50.6646 22.8492 51.1375 22.5263 51.5364 22.057C52.233 21.2356 52.7561 20.3083 53.2803 19.3779C53.4362 19.1014 53.5819 18.8158 53.7635 18.5373C53.6337 18.3777 53.4707 18.2474 53.2855 18.1549C52.6347 19.3718 51.8909 20.5383 51.0605 21.6443C50.8553 21.9137 50.5692 22.2013 50.1835 22.0913C49.7978 21.9814 49.5998 21.6241 49.5516 21.2336C49.449 20.4102 49.2879 19.5828 49.2972 18.7583C49.3392 15.1549 50.1394 11.6503 50.8071 8.12954C50.9005 7.63306 51.2656 7.4817 51.6196 7.32229C53.2608 6.58162 54.9021 5.83287 56.5711 5.15376C60.1787 3.68654 63.8059 2.26271 67.4218 0.814665C67.7049 0.692568 68.2066 0.611825 68.0712 0.244516ZM39.8158 15.1559L40.0282 15.2568C39.4189 16.4569 38.8099 17.6567 38.2013 18.8562C38.5295 17.5181 39.1973 16.3486 39.8158 15.1559ZM51.158 2.60277C51.2451 3.70773 50.9435 4.74708 50.6964 5.87928C50.5261 5.24053 50.7794 3.39188 51.158 2.60277Z" fill="#F6ECEB"/>
<path d="M11.9297 36.4438C12.2179 36.4377 12.7124 36.4004 13.1812 36.3661C12.819 36.3792 12.4354 36.4075 11.9297 36.4438Z" fill="#F6ECEB"/>
<path d="M52.7396 28.9472C52.8268 29.0268 52.9242 29.1186 53.0248 29.2115L52.7396 28.9472Z" fill="#F6ECEB"/>
<path d="M35.5096 32.2701L35.5711 32.2247C36.64 31.922 35.8912 32.1652 36.878 31.8746C37.2514 31.7201 38.5192 31.3901 38.8475 31.258L38.9173 31.2378L39.0783 31.1894C39.1483 31.1643 39.2204 31.1454 39.2938 31.1328C39.4342 31.0672 39.7861 30.9714 40.0867 30.8705C40.1892 30.8301 40.0046 30.8907 39.9205 30.9108C40.1513 30.8362 40.38 30.7544 40.6087 30.6767C40.8816 30.5929 40.9514 30.5819 40.659 30.6767C41.5648 30.3881 44.1785 29.5062 46.7522 28.4567C48.8007 27.644 50.8022 26.7213 52.7479 25.6929C52.6269 25.7483 52.4289 25.8533 52.235 25.9552C52.0412 26.0571 51.8391 26.1479 51.7221 26.1913C52.2022 25.938 52.4402 25.8321 52.6402 25.706C52.8628 25.6093 53.0803 25.5015 53.2916 25.383C53.5747 25.2246 53.8794 25.053 54.0681 24.9673L54.1923 24.8714C54.2733 24.8321 54.3513 24.7857 54.4313 24.7433C54.939 24.4254 55.2221 24.2488 55.3832 24.1378L55.6396 23.9652C55.7238 23.9057 55.7935 23.8876 56.6552 23.2539C56.9004 23.0631 57.1065 22.8866 57.2921 22.7341C57.4779 22.5818 57.6256 22.4224 57.7692 22.2892C58.0269 22.0421 58.2704 21.781 58.4985 21.5072C58.4328 21.5879 58.2421 21.7907 58.4493 21.5384C58.5575 21.4218 58.6566 21.2973 58.7457 21.166C58.8801 20.9794 59.0114 20.7745 59.0617 20.711C59.1959 20.4979 59.3193 20.2783 59.431 20.053C59.5428 19.823 59.6033 19.6625 59.5212 19.8179C59.5643 19.7413 59.6771 19.49 59.7448 19.3134C59.8125 19.1368 59.8474 19.054 59.7582 19.3134C59.8582 19.0516 59.9405 18.7836 60.0043 18.5111C59.9705 18.6403 59.9336 18.7684 59.8916 18.8956C60.0172 18.4826 60.1074 18.06 60.1613 17.6322C60.2047 17.2953 60.2178 16.9553 60.2003 16.6161C60.2003 16.7452 60.2003 16.8754 60.189 17.0036C60.1947 16.5359 60.1704 16.0685 60.1162 15.604C60.1552 15.8179 60.1839 16.0318 60.2023 16.2477C60.172 15.798 60.0912 15.353 59.9612 14.9208C59.9014 14.7226 59.8253 14.5296 59.7335 14.3436C59.7089 14.2952 59.6822 14.2427 59.6515 14.1972C59.6157 14.1356 59.5749 14.0769 59.5294 14.0217C59.4742 13.9491 59.4065 13.8867 59.3294 13.837C59.2536 13.7826 59.1603 13.7571 59.0668 13.7654C59.1569 13.7574 59.2469 13.7818 59.3202 13.834C59.3969 13.8832 59.4643 13.9454 59.5192 14.0177C59.4295 13.8959 59.2997 13.8085 59.1519 13.7704C59.0548 13.7708 58.9577 13.7782 58.8616 13.7926C58.837 13.7926 58.8073 13.7926 58.7857 13.8017L58.7303 13.8178L58.6175 13.8532C58.2762 13.98 57.9752 14.1939 57.7455 14.4728C57.2327 15.0621 56.9249 15.8855 56.7085 16.6928C56.2859 18.3295 56.2777 19.9855 56.2828 20.4759L56.3126 20.0228C56.3126 20.3043 56.3126 20.5868 56.3126 20.8684C56.3126 20.7675 56.2531 20.4647 56.2592 20.3759C56.2457 21.227 56.2834 22.0782 56.3721 22.9249C56.4931 24.0883 56.7824 25.492 57.3671 26.7927C57.6525 27.4347 58.0089 28.0438 58.4298 28.6091C58.8152 29.1233 59.2565 29.5947 59.7458 30.0148C60.3918 30.5632 61.1069 31.0275 61.8734 31.3963C62.4971 31.699 61.9759 31.4769 61.9646 31.4759C62.3493 31.6515 62.4365 31.6778 62.5063 31.704C62.576 31.7302 62.6335 31.7504 62.9576 31.8826C63.132 31.9572 62.9166 31.8826 62.815 31.8432C62.9576 31.9007 63.093 31.9563 63.1904 31.9986L63.3053 32.0501C63.3097 32.0513 63.3144 32.0513 63.3187 32.0501L63.3064 32.042L63.2633 32.0198L63.1976 31.9865C63.1759 31.9753 63.1553 31.9622 63.1361 31.9471C63.1117 31.9197 63.0816 31.8977 63.0479 31.8826L63.21 31.9513L63.2879 31.9855L63.3392 32.0097C63.37 32.0269 63.4213 32.0491 63.4058 32.0935C63.4059 32.1107 63.4028 32.1278 63.3966 32.144L63.3843 32.1328C63.3818 32.1411 63.3802 32.1495 63.3792 32.1581C63.3762 32.1789 63.3696 32.199 63.3597 32.2176C63.3507 32.2423 63.3405 32.2666 63.3289 32.2902L63.2736 32.375C63.1823 32.4961 62.975 32.6515 62.5832 32.7454C61.9184 32.9038 61.1471 32.8301 60.4096 32.6808C59.6727 32.5179 58.9554 32.2787 58.2698 31.9673C58.2934 31.9673 58.5775 32.0874 58.8698 32.1964C58.6872 32.1218 58.4072 32.0148 58.2451 31.93C58.5621 32.0925 57.6789 31.6828 57.9292 31.8049C57.3917 31.5633 56.8724 31.2844 56.3751 30.9704C55.8622 30.6556 55.3832 30.3064 54.9903 30.034C54.9503 30.0178 54.4507 29.8251 53.9706 29.6021C53.7265 29.4961 53.4926 29.379 53.3121 29.2994C53.2135 29.2468 53.1106 29.2026 53.0043 29.1671C52.7828 28.9593 52.5612 28.7514 52.4915 28.6858C52.5448 28.7433 52.9716 29.1631 53.2188 29.3659L53.2742 29.3861C53.8291 29.8634 53.3911 29.5122 53.942 29.9693C53.837 29.9041 53.7381 29.8298 53.6466 29.7473C53.466 29.601 53.2362 29.3942 53.0167 29.2045L53.5716 29.6989C53.7419 29.8412 53.8845 29.9572 53.9727 30.0178C54.3502 30.3326 53.9143 30.0016 54.3769 30.373C54.7113 30.6313 55.1739 30.9401 55.5729 31.2187H55.5648C55.9736 31.4989 56.399 31.755 56.8387 31.9855C57.2296 32.1944 57.6174 32.3791 58.1128 32.6081L58.0031 32.5647C58.5672 32.8185 59.1502 33.0296 59.7469 33.1964C59.553 33.1389 59.3889 33.0814 59.7971 33.1964C60.1397 33.2933 60.4886 33.3664 60.8414 33.4154C61.1446 33.4584 61.4502 33.4837 61.7564 33.4911L62.0529 33.4729C62.1554 33.4638 62.258 33.4487 62.3524 33.4366C62.5909 33.4067 62.825 33.3496 63.0499 33.2661C63.0899 33.251 63.132 33.2368 63.1751 33.2176L63.3105 33.15C63.3616 33.1255 63.4104 33.0965 63.4561 33.0633C63.5096 33.0293 63.5606 32.9918 63.6089 32.9512C63.6602 32.9038 63.7115 32.8573 63.7649 32.8019C63.8169 32.7377 63.8646 32.6703 63.9075 32.6001C63.9535 32.5218 63.9901 32.4385 64.0162 32.3518C64.0354 32.2898 64.0499 32.2263 64.0593 32.1621C64.0593 32.0975 64.0685 32.0319 64.0726 31.9653C64.0669 31.874 64.0372 31.7857 63.9864 31.709C63.9266 31.6298 63.8503 31.5638 63.7628 31.5153C63.7167 31.489 63.6706 31.4618 63.6203 31.4386L63.5279 31.3963L63.3566 31.3226C63.1279 31.2287 62.892 31.1358 62.6458 31.0299C62.1109 30.8034 61.5962 30.5334 61.1071 30.2226C60.558 29.8711 60.0526 29.4576 59.6012 28.9905C59.1303 28.4985 58.7215 27.9523 58.3836 27.3639C57.6994 26.1812 57.327 24.8653 57.1362 23.7311C56.9959 22.8415 56.9201 21.9432 56.9096 21.0429V21.1438C56.8767 19.9206 56.9744 18.6973 57.2009 17.494C57.3393 16.8159 57.5343 16.1065 57.8718 15.4758C58.0244 15.1716 58.2391 14.9016 58.5026 14.6826C58.6213 14.5886 58.7586 14.5198 58.9057 14.4808C58.9519 14.4657 58.9406 14.4707 58.9519 14.4687C58.9632 14.4667 58.9652 14.4687 58.9714 14.4687C58.9775 14.4719 58.983 14.4759 58.9878 14.4808L58.994 14.4889L59.0124 14.5161C59.1001 14.6625 59.1713 14.8178 59.2248 14.9793C59.2836 15.152 59.3323 15.3279 59.3704 15.5061C59.4472 15.866 59.4904 16.2322 59.4996 16.5999C59.5205 17.3147 59.4245 18.028 59.2155 18.713C58.851 19.8836 58.1841 20.9413 57.2798 21.7826C56.7334 22.2749 56.1553 22.7323 55.5494 23.1519C55.8571 22.935 55.7607 23.0218 55.5206 23.1923L54.7472 23.708C54.6251 23.7846 54.6108 23.7957 54.5954 23.8089C54.5626 23.829 54.5389 23.8654 53.6321 24.4042C53.3675 24.5536 53.0167 24.7675 52.5807 24.9956L51.8791 25.37L51.079 25.7736C49.9506 26.3276 48.6233 26.938 47.2764 27.4961C44.5826 28.6192 41.849 29.5546 40.8139 29.8896L39.944 30.1924L39.0208 30.4951L37.2288 31.0551L37.3375 31.0158C36.7528 31.2055 34.7833 31.7716 32.7758 32.2902C31.7716 32.5516 30.7571 32.7948 29.9036 32.9966L28.0172 33.4265L28.2121 33.3801C26.9966 33.6576 27.1566 33.594 26.1934 33.7837C26.3257 33.7837 25.2794 34.0067 24.8794 34.0864L24.8937 34.0774C24.5932 34.142 24.1008 34.2378 23.5602 34.3427C23.0196 34.4477 22.4319 34.5617 21.9251 34.6455L21.962 34.6243C21.1301 34.7868 19.5534 35.0128 18.9513 35.1026C17.5706 35.2853 15.438 35.5295 13.5854 35.7081C13.1853 35.7323 12.7843 35.7454 12.3832 35.7636L12.2089 35.7817C12.2089 35.7817 11.7359 35.9462 11.5688 36.0996C11.4015 36.253 11.5421 36.4023 12.7802 36.3539L12.7412 36.372L13.2295 36.3317C13.8142 36.2903 14.0819 36.2409 14.0439 36.261C13.7772 36.2853 13.5116 36.3155 13.2438 36.3337C13.8316 36.2883 13.4223 36.3337 13.1987 36.3579L13.8778 36.3044C13.9927 36.2873 13.7916 36.3044 13.7003 36.3115C14.0152 36.2761 14.4533 36.2197 14.839 36.1894C15.439 36.1299 14.88 36.2137 15.5806 36.1379C17.427 35.9442 19.2396 35.698 21.0521 35.4235C22.8647 35.149 24.6711 34.8109 26.5103 34.4376C26.5944 34.4255 26.495 34.4467 26.3893 34.472L27.9741 34.1308C28.487 34.0209 28.9774 33.9028 29.4789 33.7877C29.759 33.7312 29.837 33.7222 29.9211 33.7101C29.879 33.7171 30.2032 33.6374 30.7151 33.5082C31.227 33.3791 31.9244 33.2146 32.6271 33.0299C33.3297 32.8452 34.0407 32.6586 34.5761 32.5113C35.1116 32.3639 35.487 32.2701 35.5096 32.2701Z" fill="#F6ECEB"/>
</g>
<defs>
<clipPath id="clip0_82_19">
<rect width="68.1579" height="37" fill="white"/>
</clipPath>
</defs>
</svg>
