<svg width="128" height="128" viewBox="0 0 128 128" fill="none" xmlns="http://www.w3.org/2000/svg">
<g clip-path="url(#clip0_3_16)">
<g clip-path="url(#clip1_3_16)">
<g clip-path="url(#clip2_3_16)">
<path d="M41.8152 71.4329C42.6066 75.0062 43.2585 78.6184 44.23 82.1388C45.3539 86.3414 46.1402 90.631 46.5812 94.9673C46.6908 95.9613 46.4108 96.8557 45.4218 97.256C44.4326 97.6563 43.6704 97.1823 43.0882 96.3363C40.8261 93.0498 39.4283 89.3847 38.4026 85.5561C38.1435 84.5909 38.1176 83.5454 37.3949 82.5278C37.0689 83.5945 37.1341 84.4969 37.1624 85.3933C37.3891 91.4195 37.6496 97.4513 37.6159 103.484C37.6102 104.402 37.4355 105.314 37.1009 106.174C36.2241 108.478 36.2263 108.481 34.0868 106.986C33.9281 109.679 33.2314 112.161 32.7643 114.692C32.2794 117.305 31.5778 119.837 29.6086 121.879C26.9733 124.611 23.4296 124.544 21.0841 121.587C16.783 116.159 13.7538 110.091 11.6693 103.466C8.98672 94.9114 8.136 86.2214 9.25942 77.2862C9.82193 72.8057 11.0655 68.6475 14.2519 65.18C16.5766 62.6423 19.8264 63.5837 21.3959 65.6325C23.5738 68.4794 24.6347 71.6616 25.1662 75.2308C25.7702 79.4255 26.0381 83.6662 25.9674 87.9132C25.9375 90.4028 25.2423 92.8124 25.0898 95.2803C25.0598 95.7705 24.9067 96.2736 24.2972 96.1911C23.7813 96.1213 23.8254 95.6087 23.8575 95.2103C23.9029 94.2908 23.9992 93.3736 24.1455 92.463C25.4752 85.6502 24.5493 78.9486 23.3923 72.2769C22.9606 69.7946 21.517 67.7262 19.9341 65.8466C18.6849 64.3639 16.566 64.4528 15.1839 65.9914C13.4471 67.9489 11.9799 70.1297 11.4021 72.7171C9.93598 79.1957 9.64305 85.8657 10.5371 92.4118C11.2985 98.0376 12.5616 103.5 14.8552 108.614C16.7349 112.805 18.7291 117 21.8562 120.533C24.3532 123.355 27.5732 123.376 29.7172 119.74C30.2275 118.898 30.6164 117.99 30.8726 117.044C31.905 112.973 32.9118 108.89 32.9444 104.664C32.9476 104.2 32.8946 103.738 32.7866 103.289C31.7417 99.0694 31.2454 94.7268 31.3101 90.3659C31.4304 85.8786 32.1722 81.4202 33.5148 77.1165C34.0218 75.4655 34.2097 73.7122 35.5995 72.458C36.0568 72.0432 36.3891 71.3404 37.1749 71.7659C37.3337 71.8399 37.4758 71.9444 37.5931 72.0737C37.7102 72.203 37.8003 72.3544 37.858 72.5193C37.9157 72.6842 37.9398 72.8594 37.9292 73.0347C37.9184 73.2098 37.8729 73.3819 37.7955 73.5406C36.9513 75.4433 37.3928 77.297 37.9206 79.1026C39.4304 84.2983 40.4177 89.6916 43.3263 94.3807C43.4901 94.6846 43.6828 94.972 43.9018 95.2388C44.2274 95.5848 44.4273 96.3238 45.0656 95.9784C45.5079 95.7412 45.2915 95.1491 45.2375 94.6958C44.084 84.9288 41.4102 75.5054 39.0704 66.0072C38.7131 64.5611 38.5085 63.0798 38.46 61.5871C38.4476 61.1929 38.3974 60.7025 38.9003 60.5728C39.5647 60.403 39.5886 60.9806 39.7353 61.4058C41.6372 66.6739 43.5474 71.941 45.4661 77.2071C45.5685 77.484 45.5475 77.9016 46.2107 78.0889C44.6976 73.601 43.8017 68.9219 43.5475 64.1775C43.4244 61.8076 43.3167 59.1149 44.7759 57.345C46.3478 55.4371 46.6538 53.2373 47.6523 51.2311C48.3017 49.9248 48.1588 48.7553 47.4377 47.4983C45.9559 44.8646 44.7531 42.0823 43.8486 39.1948C43.5951 38.3904 43.1422 37.1243 44.1181 36.7087C45.0055 36.3307 45.6428 37.504 46.1983 38.17C46.7536 38.836 47.1108 39.6142 47.4747 40.3878C48.1493 41.8199 48.7612 43.2838 49.5554 45.0888C50.6018 41.9215 51.4649 39.0796 52.5005 36.3056C52.8111 35.4657 52.6583 33.689 53.9345 34.0844C54.9129 34.3794 53.8534 35.7945 53.6045 36.6549C52.6882 39.8117 51.675 42.9409 50.6591 46.0696C50.4002 46.7736 50.4087 47.5439 50.6828 48.2343C54.0149 56.8289 57.7403 65.2306 62.4939 73.1455C63.2552 74.4135 64.4877 75.1834 65.462 76.2183C65.7915 76.5664 66.4953 76.9143 66.0333 77.4503C65.4729 78.1019 65.0386 77.3632 64.6129 77.0557C61.1607 74.5689 59.6764 70.699 57.7084 67.1812C56.6069 65.209 55.6863 63.1318 54.5664 61.1405C55.6544 64.9793 56.4699 68.8744 57.3343 72.7575C57.7386 74.5688 57.861 76.4013 57.4792 78.2271C57.2594 79.2708 56.6689 80.2704 55.5655 80.476C54.5317 80.667 53.8851 79.903 53.2044 79.1014C50.879 76.3607 50.3242 72.9185 49.3549 69.6569C48.3473 66.2627 47.8417 62.7197 46.5921 59.3825C44.3259 60.3486 44.7179 62.2915 44.7959 64.0077C45.0862 70.3945 46.7122 76.4762 49.0191 82.394C49.4535 83.4841 49.7718 84.6179 49.969 85.7771C50.0353 86.1874 50.0069 86.6374 49.4914 86.8202C48.8505 87.0446 48.6051 86.4753 48.3467 86.0329C46.2016 82.3867 44.4504 78.521 43.1216 74.4993C42.7819 73.4583 42.4869 72.4029 42.1623 71.3586L41.8152 71.4329ZM48.9254 51.5083C48.599 52.3934 48.3263 53.0174 48.1395 53.6645C47.7612 54.9694 46.7164 56.2565 47.2787 57.6178C48.9534 61.7197 49.569 66.1116 50.8391 70.3161C51.6878 73.122 52.1357 76.153 54.3163 78.4035C54.6336 78.7308 54.8723 79.241 55.3775 79.1464C55.9488 79.0397 56.1468 78.4904 56.2545 77.9651C56.512 76.5473 56.5088 75.0988 56.2452 73.6901C55.0082 66.0059 52.2943 58.8167 48.9254 51.5083ZM33.4145 98.8652C34.1091 90.9143 34.6432 82.9805 35.6407 75.0771C32.7739 82.8669 31.9473 90.8001 33.4145 98.8652ZM35.6692 88.4963C35.2484 93.3431 34.8275 98.1899 34.4067 103.037C34.2923 104.316 34.9483 105.26 35.7573 106.212C36.6582 100.27 36.2322 94.3795 35.6692 88.4963ZM45.6693 39.4383L45.1369 39.7461C46.5476 41.8989 46.983 44.5286 48.7889 46.4947L45.6693 39.4383Z" fill="#200B08"/>
<path d="M92.8996 -11.7523C92.0684 -12.3276 91.8071 -11.3038 91.4597 -10.7649C86.8527 -3.61162 81.9521 3.3549 77.5394 10.6246C76.0194 13.125 74.5073 15.6296 72.888 18.3151C72.6198 17.7667 72.449 17.474 72.3271 17.1617C71.2807 14.4335 70.1161 11.7711 68.3981 9.37966C68.026 8.85017 67.7208 8.47264 67.0401 8.65131C66.3135 8.84258 66.2222 9.43003 66.2712 10.022C66.3533 10.9911 66.4736 11.9579 66.9409 12.843C68.1924 15.2134 69.2017 17.7221 70.7597 19.9214C71.3606 20.7765 71.3721 21.5421 70.8397 22.4395C69.1614 25.2722 67.8172 28.2925 65.8412 30.9536C65.5857 31.3002 65.3294 31.699 65.6738 32.0293C66.0515 32.3927 66.417 32.0499 66.7004 31.75C67.2342 31.2165 67.6962 30.6167 68.075 29.966C69.3698 27.5822 70.7256 25.2391 72.2538 22.534C73.6079 25.0042 74.895 27.1482 75.9915 29.3867C78.5795 34.6747 81.2521 39.9374 81.4593 46.0459C81.4784 46.6024 81.832 47.3292 81.1673 47.5875C80.5783 47.8147 80.1837 47.1218 79.863 46.701C78.4357 44.83 77.3422 42.7588 76.3637 40.624C75.0594 37.8092 73.2783 35.2926 71.5402 32.7484C71.153 32.1975 70.619 31.8458 69.9281 31.9603C69.1975 32.0784 68.9442 32.6911 68.7606 33.3212C68.5932 33.8785 68.4336 34.4256 68.5208 35.0151C68.9252 37.6788 69.0484 40.3827 70.1065 42.9112C70.3403 43.4641 70.6875 44.0506 70.4922 44.9517C69.3401 42.6589 68.287 40.5813 67.2545 38.4942C66.9899 37.9579 66.7281 37.3902 66.0056 37.6156C65.2828 37.841 65.315 38.5332 65.4355 39.0774C65.6792 40.1344 66.0042 41.1759 66.3275 42.2113C68.2219 48.2667 70.6801 54.137 71.9474 60.3973C72.1705 61.5104 72.1438 62.6765 72.216 63.8196C72.2355 64.1032 72.2093 64.4138 71.9007 64.5643C71.5922 64.7149 71.3218 64.4971 71.1687 64.2756C70.0393 62.6472 68.484 61.2615 68.1158 59.1891C67.3954 55.1238 66.4822 51.0935 66.0265 46.9822C65.8828 45.6733 65.7555 44.3452 65.1857 43.1366C64.9173 42.5663 64.9407 41.6728 63.9151 41.8187C62.8895 41.9646 62.8554 42.6691 62.839 43.4838C62.7514 48.5051 63.6407 53.3187 65.8818 57.8039C67.5275 61.101 67.5724 64.6632 67.6718 68.2069C67.7051 69.3552 67.6217 71.1899 66.6023 71.437C65.4863 71.6956 65.0513 70.0289 64.495 69.0171C64.3681 68.7869 64.1861 68.3966 64.0867 68.152C61.0586 60.7783 60.0582 53.1858 61.9942 45.2861C62.0869 44.9065 62.3366 44.4486 61.8334 44.2298C61.2371 43.9709 61.0303 44.465 60.8171 44.9146C60.3945 45.7978 60.1314 46.7462 60.0401 47.7156C59.5331 53.4935 59.7426 59.2074 61.4676 64.7627C62.1975 67.1116 63.0043 69.4531 64.4855 71.4507C65.0286 72.1843 65.5664 73.2337 66.7677 72.9224C67.8383 72.6417 68.2211 71.6947 68.4832 70.7073C68.8415 69.3599 69.0814 68.0073 68.9431 66.6135C68.8424 65.5861 68.7982 64.5534 68.7124 63.2701C69.3919 64.07 69.8571 64.6396 70.3463 65.1899C70.9188 65.8341 71.6294 66.2239 72.4957 65.8584C73.2941 65.5208 73.4974 64.7515 73.478 63.9817C73.4448 62.7768 73.5252 61.5239 73.2221 60.3858C72.0303 55.9125 71.1141 51.3486 69.2196 47.0865C68.7592 46.0762 68.5587 44.9422 68.2381 43.8681C69.7787 47.2464 71.6086 50.4115 73.3056 53.643C73.6243 54.2493 73.8595 54.9143 74.2596 55.4585C74.6036 55.9267 75.0092 56.6709 75.7563 56.2638C76.3918 55.9179 76.1021 55.2323 75.9099 54.7065C75.6645 54.0021 75.3266 53.3404 75.0398 52.6552C72.7544 47.162 70.4875 41.6634 69.8771 35.6489C69.7985 34.8764 69.5545 34.0922 70.3277 33.367C72.1754 35.7847 73.7925 38.3701 75.1587 41.09C76.3789 43.5366 77.475 46.0802 79.4652 48.0419C80.046 48.6164 80.6344 49.5317 81.6435 48.8865C82.5768 48.2895 82.9965 47.3952 82.7883 46.2076C82.4322 44.188 82.5137 42.1017 81.7189 39.7419C83.2558 41.6981 84.5313 43.3 86.091 44.6529C87.0008 45.4432 88.0013 46.025 89.2184 45.5159C90.4356 45.0069 90.836 43.9395 90.9484 42.7181C91.1423 40.5823 90.9324 38.4724 90.7206 36.3564C90.6579 35.7274 90.5682 35.0951 90.5449 34.4335C90.1508 34.322 89.7361 34.2961 89.3284 34.3575C89.6621 37.0853 89.7866 39.8376 89.7006 42.5904C89.675 43.2642 89.5383 44.0605 88.7841 44.3227C88.03 44.585 87.2985 44.2294 86.7727 43.6482C85.6626 42.4238 84.4528 41.26 83.5237 39.9058C79.4655 33.9858 76.7554 27.3589 73.811 20.8573C73.3946 19.9414 73.8159 19.2769 74.2098 18.612C76.0348 15.5264 77.8505 12.4277 79.7911 9.41069C83.9868 2.89041 88.2639 -3.5815 92.4949 -10.0799C92.8162 -10.603 93.5408 -11.3087 92.8996 -11.7523ZM63.9556 44.888L64.417 44.8093C64.799 47.4624 65.1812 50.1145 65.5635 52.7658C64.5658 50.2096 64.3141 47.5395 63.9556 44.888ZM68.0532 11.4496C69.4606 13.1505 70.1596 15.1894 71.0536 17.3172C70.0448 16.4713 68.3404 13.1688 68.0532 11.4496Z" fill="#200B08"/>
<path d="M42.9153 111.496C43.3778 111.157 44.1403 110.53 44.8646 109.937C44.2898 110.373 43.6973 110.858 42.9153 111.496Z" fill="#200B08"/>
<path d="M100.799 52.5688C101.032 52.5988 101.296 52.6369 101.566 52.6731L100.799 52.5688Z" fill="#200B08"/>
<path d="M76.5408 77.7054L76.5891 77.561C77.9834 75.8442 77.0423 77.0977 78.3167 75.4946C78.748 74.8156 80.4351 72.8266 80.8184 72.2355L80.9089 72.1228L81.1157 71.8596C81.2011 71.7386 81.2967 71.6253 81.4019 71.5208C81.5556 71.2531 82.019 70.6941 82.3929 70.1857C82.5137 70.0025 82.2823 70.3125 82.1684 70.4417C82.4589 70.0558 82.7378 69.6608 83.0213 69.2724C83.3698 68.8236 83.4709 68.7256 83.1033 69.2149C84.2481 67.7078 87.495 63.279 90.4851 58.6229C92.8908 54.9539 95.0941 51.1593 97.0853 47.2563C96.9517 47.4853 96.7495 47.8828 96.5503 48.2708C96.3514 48.6588 96.1262 49.0382 95.9854 49.2427C96.4772 48.2805 96.7436 47.8353 96.9249 47.4009C97.1767 46.9887 97.4075 46.5641 97.616 46.1292C97.8956 45.5469 98.1954 44.9186 98.4047 44.5628L98.4971 44.2644C98.584 44.1077 98.6578 43.9428 98.7396 43.7821C99.2025 42.683 99.4614 42.0712 99.5967 41.7059L99.8167 41.1312C99.8856 40.9379 99.9784 40.8285 100.656 38.8095C100.837 38.218 100.971 37.6944 101.098 37.2335C101.226 36.7727 101.284 36.3439 101.366 35.9624C101.503 35.2647 101.6 34.5605 101.658 33.8533C101.644 34.06 101.565 34.6088 101.614 33.9605C101.656 33.6467 101.675 33.3304 101.67 33.0144C101.675 32.5565 101.654 32.0724 101.663 31.9112C101.638 31.4104 101.588 30.9114 101.512 30.4164C101.43 29.9135 101.345 29.5829 101.389 29.93C101.372 29.7557 101.268 29.2171 101.176 28.8519C101.084 28.4866 101.046 28.3118 101.198 28.8366C101.061 28.2956 100.888 27.7646 100.68 27.2475C100.772 27.4967 100.859 27.7478 100.936 28.0031C100.668 27.1863 100.331 26.3944 99.9287 25.6356C99.6136 25.0369 99.2455 24.4679 98.8286 23.9351C98.9765 24.1456 99.1255 24.3577 99.2539 24.5795C98.7278 23.8109 98.1529 23.0771 97.5326 22.3822C97.841 22.6861 98.1327 23.0018 98.4101 23.3325C97.8457 22.6344 97.2044 22.0018 96.4978 21.4462C96.1735 21.1917 95.8284 20.9643 95.4659 20.7663C95.3704 20.7155 95.2668 20.6605 95.1647 20.6217C95.0358 20.5622 94.9021 20.5133 94.7648 20.4753C94.5918 20.4203 94.41 20.396 94.2275 20.4034C94.0418 20.4014 93.8607 20.4667 93.7178 20.5873C93.8555 20.4711 94.03 20.4078 94.2091 20.4089C94.3905 20.4014 94.5715 20.4256 94.7436 20.4806C94.4581 20.3848 94.1467 20.3909 93.8623 20.498C93.7044 20.6098 93.5549 20.7329 93.4148 20.8665C93.3747 20.8946 93.3264 20.9286 93.3016 20.9681L93.2298 21.0578L93.0865 21.2446C92.676 21.8419 92.4307 22.5348 92.376 23.2522C92.2155 24.7996 92.6572 26.4936 93.2292 28.0568C94.4153 31.2077 96.2983 33.9156 96.8683 34.7088L96.3978 33.9364C96.7202 34.3952 97.0437 34.8556 97.3662 35.3144C97.2506 35.15 96.8071 34.7248 96.7154 34.573C97.668 35.9754 98.7041 37.3192 99.8182 38.5975C101.348 40.3549 103.426 42.3112 105.868 43.7614C107.068 44.4809 108.346 45.0655 109.679 45.5049C110.896 45.9018 112.154 46.1648 113.432 46.2892C115.113 46.4435 116.809 46.3817 118.48 46.1052C119.842 45.8846 118.739 46.1193 118.72 46.1306C119.547 45.9764 119.719 45.9193 119.863 45.8823C120.007 45.8452 120.123 45.8123 120.803 45.6566C121.172 45.5787 120.736 45.7036 120.525 45.7558C120.823 45.6862 121.107 45.6217 121.315 45.5793L121.561 45.5317C121.569 45.5286 121.577 45.5233 121.583 45.5164L121.553 45.5172L121.458 45.5304L121.313 45.5513C121.264 45.5579 121.216 45.56 121.167 45.5576C121.096 45.5408 121.022 45.5393 120.95 45.5533L121.292 45.4797L121.458 45.4463L121.57 45.427C121.639 45.4198 121.748 45.3973 121.774 45.4873C121.794 45.5152 121.808 45.5467 121.817 45.58L121.784 45.576C121.79 45.5924 121.796 45.6079 121.805 45.6231C121.824 45.6603 121.836 45.7007 121.841 45.7423C121.855 45.7929 121.866 45.8442 121.874 45.8959L121.881 46.0974C121.871 46.3992 121.711 46.8897 121.181 47.4912C120.279 48.5102 118.939 49.2731 117.567 49.8739C116.18 50.4519 114.738 50.8831 113.264 51.1605C113.303 51.1335 113.903 51.004 114.504 50.847C114.121 50.9343 113.543 51.0805 113.182 51.1279C113.884 51.0297 111.976 51.3731 112.524 51.2856C111.372 51.5072 110.206 51.6471 109.037 51.7047C107.841 51.7787 106.661 51.758 105.709 51.7638C105.625 51.7832 104.591 52.0409 103.554 52.2271C103.035 52.3338 102.52 52.4107 102.134 52.4875C101.914 52.5148 101.695 52.5606 101.482 52.6243C100.883 52.5392 100.284 52.454 100.095 52.4269C100.248 52.4597 101.424 52.6552 102.059 52.7027L102.172 52.6722C103.622 52.8149 102.507 52.744 103.928 52.8583C103.682 52.8721 103.436 52.8642 103.192 52.8347C102.731 52.8029 102.119 52.729 101.545 52.6711L103.015 52.8415C103.455 52.8785 103.82 52.9044 104.033 52.9021C105.008 52.983 103.919 52.9426 105.098 53.0183C105.939 53.0565 107.046 53.0302 108.015 53.0273L108.001 53.0366C108.988 53.0254 109.974 52.9557 110.954 52.8281C111.83 52.7211 112.673 52.5783 113.743 52.3844L113.514 52.4393C114.724 52.207 115.915 51.8839 117.078 51.4726C116.696 51.6009 116.363 51.695 117.16 51.4151C117.828 51.1809 118.48 50.9008 119.111 50.5767C119.654 50.2997 120.181 49.9911 120.688 49.6528L121.15 49.2837C121.307 49.1516 121.457 49.0096 121.597 48.8818C121.951 48.5601 122.267 48.1989 122.537 47.8054C122.585 47.7351 122.637 47.6638 122.686 47.5833L122.829 47.318C122.884 47.2196 122.93 47.1165 122.967 47.01C123.015 46.8935 123.055 46.774 123.087 46.6525C123.116 46.5165 123.147 46.3821 123.17 46.2307C123.181 46.0666 123.182 45.9022 123.171 45.7386C123.157 45.5584 123.121 45.3808 123.064 45.2096C123.024 45.0865 122.975 44.9666 122.917 44.8512C122.843 44.7459 122.783 44.6285 122.713 44.5152C122.6 44.373 122.45 44.2631 122.279 44.1962C122.091 44.1356 121.891 44.1153 121.693 44.1364C121.588 44.1465 121.482 44.1549 121.373 44.1746L121.175 44.2113L120.811 44.2874C120.331 44.3963 119.84 44.5149 119.318 44.6241C118.188 44.8673 117.04 45.0164 115.888 45.0698C114.591 45.1254 113.294 45.0302 112.024 44.7856C110.693 44.523 109.402 44.1008 108.178 43.5286C105.709 42.3845 103.596 40.6665 101.986 39.0366C100.739 37.7476 99.5866 36.3704 98.5384 34.9155L98.654 35.0799C97.1997 33.1242 95.9578 31.0189 94.9487 28.7989C94.3977 27.5354 93.9029 26.1563 93.7302 24.7423C93.6304 24.0718 93.671 23.386 93.8493 22.7277C93.9351 22.4386 94.0798 22.1694 94.2749 21.9374C94.3326 21.8599 94.3201 21.881 94.3361 21.8649C94.3522 21.8486 94.3579 21.8496 94.3679 21.8425C94.3814 21.8407 94.3951 21.8409 94.4085 21.8435L94.4278 21.8496L94.489 21.8728C94.7994 22.0109 95.0933 22.1825 95.3654 22.3845C95.6589 22.5986 95.9397 22.8294 96.2057 23.0762C96.7431 23.5749 97.2328 24.122 97.6689 24.7108C98.5213 25.8516 99.182 27.124 99.626 28.4793C100.373 30.8042 100.498 33.2911 99.9886 35.6971C99.6623 37.1248 99.2447 38.5317 98.7383 39.9091C98.9911 39.2034 98.9334 39.4552 98.7377 40.0078L98.0685 41.7334C97.9575 41.9981 97.9469 42.0325 97.9368 42.0716C97.9065 42.1421 97.9096 42.2283 97.0497 44.1443C96.7897 44.6906 96.4633 45.4408 96.0145 46.3114L95.3005 47.7246L94.4595 49.2981C93.2561 51.4924 91.7933 54.0065 90.2386 56.4576C87.1374 61.3709 83.7563 66.0243 82.4541 67.755L81.384 69.244L80.227 70.794L77.9496 73.7577L78.0817 73.5692C77.3467 74.5476 74.7871 77.7243 72.1114 80.8674C70.7752 82.4427 69.4012 84.0002 68.2423 85.306L65.6621 88.1656L65.9264 87.8669C64.2645 89.7105 64.4523 89.4237 63.1007 90.8354C63.3162 90.6838 61.8675 92.2449 61.3072 92.8327L61.3202 92.8015C60.9046 93.2508 60.2124 93.9705 59.4522 94.7603C58.6918 95.5501 57.8652 96.4087 57.1357 97.1251L57.1716 97.0484C56.0027 98.2655 53.6936 100.438 52.8157 101.274C50.7761 103.152 47.5822 105.991 44.7694 108.402C44.1455 108.9 43.5074 109.38 42.875 109.869L42.6117 110.098C42.6117 110.098 42.0299 110.907 41.9332 111.349C41.8365 111.79 42.2365 111.873 44.1975 110.377L44.1548 110.451L44.9039 109.826C45.8088 109.089 46.1883 108.702 46.1495 108.779C45.7429 109.123 45.3449 109.477 44.9296 109.813C45.8349 109.066 45.2203 109.609 44.8838 109.904L45.9285 109.04C46.0961 108.88 45.7882 109.138 45.6477 109.254C46.1201 108.836 46.7689 108.243 47.3624 107.752C48.2715 106.968 47.457 107.745 48.5113 106.819C51.2968 104.39 53.967 101.914 56.6048 99.3922C59.2428 96.8702 61.7977 94.2517 64.3657 91.5381C64.4888 91.4221 64.3511 91.5706 64.2079 91.7327L66.3986 89.3627C67.108 88.5965 67.7714 87.8428 68.4566 87.0812C68.848 86.6686 68.9646 86.5646 69.0878 86.4486C69.0273 86.5082 69.4641 86.0073 70.1498 85.2109C70.8356 84.4145 71.7832 83.3481 72.7163 82.2429C73.6492 81.1377 74.5933 80.0199 75.2967 79.1669C76.0001 78.3139 76.5041 77.7312 76.5408 77.7054Z" fill="#200B08"/>
</g>
</g>
</g>
<defs>
<clipPath id="clip0_3_16">
<rect width="128" height="128" fill="white"/>
</clipPath>
<clipPath id="clip1_3_16">
<rect width="128" height="128" fill="white"/>
</clipPath>
<clipPath id="clip2_3_16">
<rect width="135.682" height="73.6932" fill="white" transform="translate(-18.25 65.7643) rotate(-35.0981)"/>
</clipPath>
</defs>
</svg>
