<svg width="41" height="25" viewBox="0 0 41 25" fill="none" xmlns="http://www.w3.org/2000/svg">
<g clip-path="url(#clip0_132_53)">
<path d="M40.574 23.2457C39.1133 23.6185 38.2101 23.2617 37.3997 22.0403C35.5803 19.3049 33.5719 16.6949 31.634 14.0367C31.3842 13.6928 31.1247 13.3553 30.8012 12.9278C28.5078 16.0328 26.2176 18.9899 24.0683 22.066C23.2995 23.1653 22.4923 23.6442 21.0573 23.2553L29.6801 11.6421L21.6531 1.15387C23.0336 0.883872 23.9882 1.02209 24.8338 2.2628C26.7012 5.00137 28.7608 7.60816 30.814 10.366C32.8801 7.6178 34.914 5.0078 36.8359 2.29494C37.6079 1.19566 38.4375 0.777801 39.8244 1.1828C38.7738 2.58101 37.7456 3.95673 36.711 5.3228C35.3144 7.16459 33.9435 9.02887 32.4957 10.8321C31.98 11.4749 32.0633 11.8928 32.5245 12.5003C35.2023 16.0328 37.8481 19.6007 40.574 23.2457ZM0.425991 11.4492C0.656616 10.2889 0.810366 9.10601 1.13068 7.96816C3.05255 1.07994 10.9322 -1.78399 16.3455 2.48459C19.5166 4.98851 20.3046 8.5178 20.1476 12.4971H2.27419C2.00513 19.636 7.12693 23.9464 13.6549 21.7478C15.9451 20.9764 17.2936 19.1764 17.9695 16.9264C18.3122 15.7982 18.8792 15.6214 19.9362 15.9428C19.3949 18.7585 18.1681 21.1114 15.6056 22.5835C11.7619 24.7885 6.2749 24.0749 3.38888 21.0117C1.68482 19.2117 0.960913 16.9714 0.640601 14.551C0.592554 14.1653 0.493257 13.786 0.416382 13.4035C0.422788 12.7521 0.425991 12.1007 0.425991 11.4492ZM2.30623 10.9703H18.4596C18.3539 5.80816 15.1508 2.14066 10.7721 2.10852C5.9674 2.06994 2.51443 5.65066 2.30623 10.9703Z" fill="#F6ECEB"/>
</g>
<defs>
<clipPath id="clip0_132_53">
<rect width="41" height="24" fill="white" transform="translate(0 0.420532)"/>
</clipPath>
</defs>
</svg>
