<svg width="85" height="25" viewBox="0 0 85 25" fill="none" xmlns="http://www.w3.org/2000/svg">
<g clip-path="url(#clip0_144_18)">
<path d="M23.7731 13.7253L20.8421 12.3094L23.6188 11.0108C23.8341 10.9097 23.9605 10.6433 23.8116 10.395L23.5231 10.061C23.3369 9.85733 23.1346 9.7088 22.889 9.80543L20.8261 10.5831C20.7811 10.6 20.7317 10.6021 20.6854 10.589L19.8868 10.3628C19.8275 10.346 19.7639 10.3618 19.7193 10.4041L18.8651 11.2149C18.6737 10.1174 18.2276 9.10743 17.5869 8.25037L18.8357 8.2406C18.8895 8.24013 18.9389 8.21074 18.9648 8.16358L19.4068 7.36187C19.4298 7.3201 19.4662 7.28727 19.51 7.26866L21.5534 6.39737C21.6788 6.34389 21.7561 6.08316 21.732 5.91405L21.6654 5.30385C21.6111 5.12861 21.3651 4.97438 21.2474 5.01782L18.1737 6.0892L19.2189 3.20751C19.2997 2.9838 19.2008 2.70615 18.9198 2.63573L18.4796 2.60364C18.2039 2.59136 17.9559 2.62922 17.8505 2.87135L16.9416 4.87985C16.9218 4.92366 16.8884 4.96003 16.8464 4.98356L16.1218 5.38828C16.068 5.41833 16.0341 5.47441 16.0325 5.5359L16.0018 6.71368C15.1276 6.09939 14.1067 5.68063 13.001 5.52148L13.8777 4.63093C13.9155 4.59251 13.9296 4.5368 13.9146 4.48517L13.6602 3.60568C13.647 3.55992 13.6495 3.51099 13.6672 3.46681L14.4961 1.40581C14.5471 1.2793 14.4173 1.04024 14.2806 0.937753L13.8022 0.553303C13.6398 0.467914 13.3567 0.532746 13.3043 0.646599L11.8883 3.57779L10.5897 0.801099C10.4887 0.585662 10.2224 0.459343 9.97394 0.608181L9.63991 0.896818C9.4363 1.08304 9.28775 1.28517 9.38448 1.53092L10.162 3.5938C10.179 3.63891 10.1811 3.68821 10.168 3.73453L9.94185 4.53319C9.92502 4.59235 9.94073 4.65597 9.98315 4.70062L10.7939 5.5548C9.69639 5.74633 8.6864 6.19234 7.82934 6.83295L7.81948 5.58427C7.8191 5.53042 7.78962 5.48112 7.74255 5.45507L6.94075 5.01306C6.89908 4.99008 6.86624 4.95381 6.84754 4.91L5.97634 2.86643C5.92286 2.74095 5.66213 2.66374 5.49293 2.68793L4.88273 2.75435C4.70758 2.80876 4.55325 3.0548 4.5967 3.17236L5.66817 6.24623L2.78648 5.20109C2.56268 5.12017 2.28503 5.21923 2.2146 5.50013L2.18251 5.94038C2.17024 6.21599 2.20809 6.46407 2.45023 6.56937L4.45873 7.47824C4.50263 7.49815 4.539 7.53154 4.56244 7.57358L4.96725 8.2982C4.9972 8.35187 5.05339 8.38582 5.11487 8.3874L6.29258 8.4181C5.67838 9.29228 5.25953 10.3132 5.10047 11.4188L4.20983 10.5422C4.1715 10.5044 4.11579 10.4903 4.06407 10.5052L3.18458 10.7596C3.13882 10.7729 3.08998 10.7704 3.0458 10.7526L0.9848 9.92377C0.858204 9.87289 0.619231 10.0026 0.516744 10.1393L0.1322 10.6178C0.0468086 10.7801 0.111736 11.0631 0.22559 11.1156L3.15659 12.5315L0.379902 13.8302C0.164465 13.9312 0.0381461 14.1976 0.186984 14.4459L0.475621 14.78C0.661842 14.9836 0.864065 15.1321 1.10973 15.0355L3.1726 14.2579C3.21762 14.2409 3.26692 14.2388 3.31334 14.2519L4.1119 14.4781C4.17106 14.4949 4.23478 14.4791 4.27943 14.4368L5.1336 13.626C5.32504 14.7235 5.77114 15.7335 6.41175 16.5906L5.16298 16.6003C5.10922 16.6007 5.05983 16.6302 5.03387 16.6774L4.59186 17.4791C4.56879 17.5208 4.53252 17.5536 4.4887 17.5724L2.44533 18.4436C2.31985 18.4971 2.24255 18.7578 2.26674 18.9269L2.33315 19.5371C2.38757 19.7123 2.6336 19.8666 2.75126 19.8231L5.82494 18.7517L4.7798 21.6334C4.69897 21.8571 4.79794 22.1348 5.07884 22.2052L5.51909 22.2373C5.7947 22.2496 6.04278 22.2117 6.14808 21.9696L7.05695 19.9611C7.07685 19.9173 7.11025 19.8809 7.15229 19.8574L7.87691 19.4527C7.93058 19.4226 7.96453 19.3665 7.96611 19.305L7.9969 18.1273C8.87108 18.7415 9.89196 19.1603 10.9976 19.3195L10.1209 20.21C10.0832 20.2484 10.0691 20.3041 10.084 20.3558L10.3384 21.2353C10.3516 21.281 10.3491 21.3299 10.3314 21.3741L9.50248 23.4351C9.4516 23.5616 9.58135 23.8007 9.71808 23.9032L10.1965 24.2877C10.3588 24.3731 10.6418 24.3082 10.6944 24.1944L12.1102 21.2632L13.4089 24.0399C13.5099 24.2553 13.7763 24.3816 14.0247 24.2328L14.3586 23.9441C14.5623 23.7579 14.7109 23.5557 14.6142 23.31L13.8366 21.2472C13.8196 21.202 13.8175 21.1527 13.8307 21.1064L14.0568 20.3078C14.0735 20.2486 14.0578 20.185 14.0155 20.1403L13.2047 19.2861C14.3022 19.0946 15.3122 18.6486 16.1693 18.0079L16.1792 19.2568C16.1795 19.3105 16.209 19.3599 16.2561 19.3859L17.0579 19.8279C17.0996 19.8509 17.1324 19.8872 17.1511 19.931L18.0223 21.9745C18.0758 22.1 18.3365 22.1772 18.5057 22.153L19.1158 22.0866C19.2911 22.0322 19.4453 21.7862 19.4019 21.6686L18.3305 18.5947L21.2122 19.6399C21.436 19.7208 21.7136 19.6217 21.784 19.3408L21.8161 18.9006C21.8284 18.625 21.7905 18.3769 21.5484 18.2716L19.5399 17.3627C19.496 17.3428 19.4596 17.3094 19.4361 17.2674L19.0314 16.5427C19.0013 16.4891 18.9453 16.4551 18.8838 16.4535L17.706 16.4228C18.3203 15.5487 18.739 14.5278 18.8982 13.4221L19.7888 14.2988C19.8271 14.3366 19.8829 14.3506 19.9345 14.3357L20.8141 14.0813C20.8597 14.068 20.9087 14.0705 20.9528 14.0883L23.0138 14.9172C23.1404 14.9681 23.3794 14.8383 23.4819 14.7017L23.8663 14.2232C23.9518 14.0609 23.887 13.7778 23.7731 13.7253ZM16.9976 11.6429H15.5154C15.4076 11.153 15.2001 10.7008 14.9151 10.308L15.954 9.26911C16.4909 9.94182 16.8604 10.7538 16.9976 11.6429ZM13.9355 9.38468C13.528 9.12413 13.065 8.94303 12.5675 8.86416V7.39514C13.4647 7.49541 14.2906 7.83018 14.9831 8.33712L13.9355 9.38468ZM13.7551 12.4203C13.7551 13.3899 12.9691 14.176 11.9994 14.176C11.0298 14.176 10.2437 13.3899 10.2437 12.4203C10.2437 11.4507 11.0298 10.6646 11.9994 10.6646C12.9691 10.6646 13.7551 11.4507 13.7551 12.4203ZM11.222 7.42193V8.90418C10.732 9.01208 10.2798 9.21951 9.88715 9.50442L8.84814 8.4655C9.52093 7.92869 10.3329 7.55914 11.222 7.42193ZM8.96371 10.484C8.70326 10.8916 8.52206 11.3546 8.44329 11.852H6.97417C7.07454 10.9549 7.4093 10.1289 7.91615 9.43645L8.96371 10.484ZM7.00115 13.1977H8.4834C8.5912 13.6876 8.79864 14.1399 9.08364 14.5326L8.04463 15.5715C7.50791 14.8988 7.13836 14.0868 7.00115 13.1977ZM10.0632 15.4559C10.4708 15.7165 10.9339 15.8976 11.4312 15.9765V17.4455C10.5342 17.3452 9.70816 17.0104 9.01567 16.5035L10.0632 15.4559ZM12.7769 17.4187V15.9364C13.2667 15.8285 13.7191 15.6211 14.1117 15.3362L15.1506 16.3751C14.4779 16.9119 13.666 17.2815 12.7769 17.4187ZM15.0352 14.3566C15.2956 13.949 15.4767 13.486 15.5556 12.9886H17.0247C16.9243 13.8858 16.5896 14.7117 16.0827 15.4042L15.0352 14.3566Z" fill="#E16426"/>
</g>
<path d="M35.2344 7.04553V18.4205H33.0859V7.04553H35.2344ZM42.0625 7.04553L37.5 12.5924L34.8906 15.3815L34.5078 13.2955L36.3203 10.944L39.4297 7.04553H42.0625ZM39.6719 18.4205L36.1328 13.0924L37.6719 11.7018L42.2266 18.4205H39.6719ZM45 11.7721V18.4205H42.9375V9.96741H44.875L45 11.7721ZM44.6719 13.8893H44.0625C44.0677 13.2747 44.151 12.7174 44.3125 12.2174C44.474 11.7174 44.7005 11.2877 44.9922 10.9283C45.2891 10.569 45.6406 10.2929 46.0469 10.1002C46.4531 9.90751 46.9062 9.81116 47.4062 9.81116C47.8125 9.81116 48.1797 9.86845 48.5078 9.98303C48.8359 10.0976 49.1172 10.2799 49.3516 10.5299C49.5911 10.7799 49.7734 11.108 49.8984 11.5143C50.0286 11.9153 50.0938 12.4101 50.0938 12.9987V18.4205H48.0156V12.983C48.0156 12.5976 47.9583 12.2929 47.8438 12.069C47.7344 11.845 47.5729 11.6862 47.3594 11.5924C47.151 11.4987 46.8932 11.4518 46.5859 11.4518C46.2682 11.4518 45.9896 11.5169 45.75 11.6471C45.5156 11.7721 45.3177 11.9466 45.1562 12.1705C45 12.3945 44.8802 12.6523 44.7969 12.944C44.7135 13.2356 44.6719 13.5507 44.6719 13.8893ZM55.7109 18.5768C55.0703 18.5768 54.4948 18.4726 53.9844 18.2643C53.474 18.0559 53.0391 17.7669 52.6797 17.3971C52.3255 17.0221 52.0521 16.5872 51.8594 16.0924C51.6719 15.5924 51.5781 15.0559 51.5781 14.483V14.1705C51.5781 13.5195 51.6719 12.9283 51.8594 12.3971C52.0469 11.8606 52.3125 11.3997 52.6562 11.0143C53 10.6289 53.4115 10.332 53.8906 10.1237C54.3698 9.91532 54.8984 9.81116 55.4766 9.81116C56.0755 9.81116 56.6042 9.91272 57.0625 10.1158C57.5208 10.3138 57.9036 10.595 58.2109 10.9596C58.5182 11.3242 58.75 11.7617 58.9062 12.2721C59.0625 12.7773 59.1406 13.3372 59.1406 13.9518V14.819H52.5156V13.3971H57.1094V13.2408C57.099 12.9127 57.0365 12.6132 56.9219 12.3424C56.8073 12.0664 56.6302 11.8476 56.3906 11.6862C56.151 11.5195 55.8411 11.4362 55.4609 11.4362C55.1536 11.4362 54.8854 11.5039 54.6562 11.6393C54.4323 11.7695 54.2448 11.957 54.0938 12.2018C53.9479 12.4414 53.8385 12.7278 53.7656 13.0612C53.6927 13.3945 53.6562 13.7643 53.6562 14.1705V14.483C53.6562 14.8372 53.7031 15.1653 53.7969 15.4674C53.8958 15.7695 54.0391 16.0325 54.2266 16.2565C54.4193 16.4752 54.6484 16.6471 54.9141 16.7721C55.1849 16.8919 55.4922 16.9518 55.8359 16.9518C56.2682 16.9518 56.6589 16.8684 57.0078 16.7018C57.362 16.5299 57.6693 16.2773 57.9297 15.944L58.9688 17.0221C58.7917 17.2825 58.5521 17.5325 58.25 17.7721C57.9531 18.0117 57.5938 18.207 57.1719 18.358C56.75 18.5039 56.263 18.5768 55.7109 18.5768ZM62.1406 9.96741L63.6484 12.6549L65.1797 9.96741H67.4219L64.9375 14.108L67.5234 18.4205H65.2812L63.6641 15.6002L62.0391 18.4205H59.7969L62.375 14.108L59.9062 9.96741H62.1406ZM68.7031 17.4127C68.7031 17.1002 68.8099 16.8372 69.0234 16.6237C69.237 16.4101 69.526 16.3033 69.8906 16.3033C70.2552 16.3033 70.5443 16.4101 70.7578 16.6237C70.9714 16.8372 71.0781 17.1002 71.0781 17.4127C71.0781 17.72 70.9714 17.9804 70.7578 18.194C70.5443 18.4023 70.2552 18.5065 69.8906 18.5065C69.526 18.5065 69.237 18.4023 69.0234 18.194C68.8099 17.9804 68.7031 17.72 68.7031 17.4127ZM73.2656 9.96741H75.3438V19.0455C75.3438 19.6445 75.2344 20.1523 75.0156 20.569C74.8021 20.9856 74.4922 21.3007 74.0859 21.5143C73.6797 21.7278 73.1823 21.8346 72.5938 21.8346C72.4115 21.8346 72.2292 21.8242 72.0469 21.8033C71.8646 21.7825 71.6849 21.7487 71.5078 21.7018L71.5156 20.108C71.6302 20.1289 71.7474 20.1445 71.8672 20.1549C71.987 20.1705 72.1068 20.1783 72.2266 20.1783C72.4505 20.1783 72.638 20.1393 72.7891 20.0612C72.9453 19.983 73.0625 19.8606 73.1406 19.694C73.224 19.5273 73.2656 19.3112 73.2656 19.0455V9.96741ZM73.0938 7.75647C73.0938 7.44918 73.1979 7.19397 73.4062 6.99084C73.6198 6.78772 73.9062 6.68616 74.2656 6.68616C74.625 6.68616 74.9089 6.78772 75.1172 6.99084C75.3307 7.19397 75.4375 7.44918 75.4375 7.75647C75.4375 8.05855 75.3307 8.31116 75.1172 8.51428C74.9089 8.71741 74.625 8.81897 74.2656 8.81897C73.9062 8.81897 73.6198 8.71741 73.4062 8.51428C73.1979 8.31116 73.0938 8.05855 73.0938 7.75647ZM81.9062 16.108C81.9062 15.9309 81.8594 15.7721 81.7656 15.6315C81.6719 15.4908 81.4948 15.3632 81.2344 15.2487C80.9792 15.1289 80.6042 15.0169 80.1094 14.9127C79.6719 14.819 79.2682 14.7018 78.8984 14.5612C78.5286 14.4205 78.2109 14.2513 77.9453 14.0533C77.6797 13.8502 77.4714 13.6132 77.3203 13.3424C77.1745 13.0664 77.1016 12.7487 77.1016 12.3893C77.1016 12.0403 77.1771 11.7122 77.3281 11.4049C77.4792 11.0924 77.6979 10.819 77.9844 10.5846C78.2708 10.345 78.6198 10.1575 79.0312 10.0221C79.4427 9.88147 79.9062 9.81116 80.4219 9.81116C81.1406 9.81116 81.7578 9.92834 82.2734 10.1627C82.7943 10.3971 83.1927 10.72 83.4688 11.1315C83.7448 11.5377 83.8828 11.9961 83.8828 12.5065H81.8203C81.8203 12.2825 81.7682 12.0794 81.6641 11.8971C81.5651 11.7148 81.4115 11.569 81.2031 11.4596C80.9948 11.345 80.7318 11.2877 80.4141 11.2877C80.1276 11.2877 79.8854 11.3346 79.6875 11.4283C79.4948 11.5221 79.349 11.6445 79.25 11.7955C79.151 11.9466 79.1016 12.1132 79.1016 12.2955C79.1016 12.4309 79.1276 12.5533 79.1797 12.6627C79.237 12.7669 79.3281 12.8632 79.4531 12.9518C79.5781 13.0403 79.7474 13.1211 79.9609 13.194C80.1797 13.2669 80.4479 13.3372 80.7656 13.4049C81.3958 13.5299 81.9453 13.6966 82.4141 13.9049C82.888 14.108 83.2578 14.3789 83.5234 14.7174C83.7891 15.0559 83.9219 15.4882 83.9219 16.0143C83.9219 16.3893 83.8411 16.733 83.6797 17.0455C83.5182 17.3528 83.2839 17.6211 82.9766 17.8502C82.6693 18.0794 82.3021 18.2591 81.875 18.3893C81.4479 18.5143 80.9661 18.5768 80.4297 18.5768C79.6536 18.5768 78.9974 18.4388 78.4609 18.1627C77.9245 17.8815 77.5182 17.5273 77.2422 17.1002C76.9661 16.6679 76.8281 16.22 76.8281 15.7565H78.8047C78.8203 16.0846 78.9089 16.3476 79.0703 16.5455C79.2318 16.7434 79.4349 16.8867 79.6797 16.9752C79.9297 17.0586 80.1927 17.1002 80.4688 17.1002C80.7812 17.1002 81.0443 17.0586 81.2578 16.9752C81.4714 16.8867 81.6328 16.7695 81.7422 16.6237C81.8516 16.4726 81.9062 16.3007 81.9062 16.108Z" fill="white"/>
<defs>
<clipPath id="clip0_144_18">
<rect width="24" height="24" fill="white" transform="translate(0 0.420532)"/>
</clipPath>
</defs>
</svg>
