<svg width="120" height="25" viewBox="0 0 120 25" fill="none" xmlns="http://www.w3.org/2000/svg">
<g clip-path="url(#clip0_132_109)">
<path d="M79.7723 0.430542H100.674V4.27872H92.3826V24.5235H88.2365V4.27872H79.7723V0.430542Z" fill="#F6ECEB"/>
<path d="M45.3965 0.430542V4.27872H28.6423V10.4693H42.116V14.3174H28.6423V20.6753H45.3965V24.5235H24.4964V4.27872H24.4947V0.430542H45.3965Z" fill="#F6ECEB"/>
<path d="M55.8335 0.440674H50.4079L69.8412 24.5336H75.2826L65.5648 12.4954L75.2671 0.459055L69.8412 0.467419L62.8483 9.13036L55.8335 0.440674Z" fill="#F6ECEB"/>
<path d="M61.401 17.6503L58.684 14.2806L50.3924 24.5519H55.8335L61.401 17.6503Z" fill="#F6ECEB"/>
<path fill-rule="evenodd" clip-rule="evenodd" d="M24.6417 24.5235L5.18226 0.420532H0V24.5135H4.14582V5.57039L19.4335 24.5235H24.6417Z" fill="#F6ECEB"/>
<path d="M101.606 24.3764C101.303 24.3764 101.044 24.2715 100.828 24.0616C100.612 23.8518 100.505 23.5978 100.508 23.2968C100.505 23.0041 100.612 22.7529 100.828 22.543C101.044 22.3332 101.303 22.2283 101.606 22.2283C101.898 22.2283 102.154 22.3332 102.37 22.543C102.589 22.7529 102.699 23.0041 102.702 23.2968C102.699 23.4956 102.648 23.6778 102.547 23.8407C102.443 24.0064 102.311 24.1362 102.145 24.2301C101.982 24.3267 101.803 24.3764 101.606 24.3764Z" fill="#F6ECEB"/>
<path d="M108.682 14.2267H110.519V21.2867C110.517 21.9356 110.376 22.4906 110.101 22.9572C109.823 23.4238 109.438 23.7799 108.944 24.0312C108.452 24.2797 107.876 24.4067 107.222 24.4067C106.623 24.4067 106.087 24.299 105.609 24.0892C105.132 23.8794 104.752 23.5646 104.474 23.1504C104.193 22.7363 104.056 22.22 104.056 21.6015H105.896C105.898 21.8721 105.96 22.1067 106.078 22.3028C106.196 22.4988 106.359 22.6479 106.567 22.7528C106.777 22.8578 107.019 22.9102 107.292 22.9102C107.587 22.9102 107.84 22.8495 108.044 22.7252C108.249 22.6037 108.407 22.4215 108.517 22.1785C108.623 21.9383 108.68 21.6401 108.682 21.2867V14.2267Z" fill="#F6ECEB"/>
<path d="M118.078 16.9878C118.034 16.5598 117.837 16.2257 117.494 15.9883C117.149 15.7481 116.702 15.6293 116.154 15.6293C115.77 15.6293 115.438 15.6873 115.163 15.8005C114.888 15.9165 114.674 16.0711 114.528 16.2671C114.382 16.4632 114.309 16.6868 114.303 16.9381C114.303 17.1479 114.354 17.3302 114.452 17.482C114.55 17.6366 114.682 17.7664 114.854 17.8713C115.022 17.979 115.21 18.0673 115.416 18.1391C115.623 18.2109 115.831 18.2717 116.039 18.3214L116.997 18.5561C117.382 18.6444 117.756 18.7632 118.112 18.915C118.469 19.0641 118.792 19.2546 119.076 19.4838C119.359 19.713 119.584 19.9891 119.75 20.3121C119.916 20.6351 120 21.0134 120 21.4496C120 22.0377 119.848 22.5541 119.542 23.0014C119.236 23.4459 118.795 23.7938 118.216 24.0451C117.64 24.2936 116.944 24.4205 116.123 24.4205C115.331 24.4205 114.64 24.2991 114.059 24.0561C113.475 23.8159 113.019 23.4625 112.691 22.9986C112.362 22.5348 112.185 21.9687 112.16 21.3033H113.98C114.005 21.6512 114.118 21.9411 114.309 22.1758C114.503 22.4077 114.755 22.5789 115.064 22.6949C115.376 22.8081 115.724 22.8661 116.109 22.8661C116.511 22.8661 116.865 22.8053 117.171 22.6866C117.475 22.5679 117.713 22.4022 117.885 22.1869C118.059 21.9742 118.146 21.723 118.149 21.4359C118.146 21.1736 118.067 20.9554 117.916 20.7842C117.761 20.6131 117.548 20.4695 117.275 20.3535C117 20.2376 116.68 20.1326 116.314 20.0415L115.152 19.7488C114.312 19.5362 113.646 19.2132 113.16 18.7797C112.671 18.3462 112.429 17.7719 112.429 17.0513C112.429 16.4604 112.592 15.9414 112.921 15.4968C113.247 15.0523 113.694 14.7072 114.258 14.4614C114.826 14.2129 115.466 14.0914 116.179 14.0914C116.904 14.0914 117.539 14.2129 118.087 14.4614C118.635 14.7072 119.065 15.0495 119.376 15.4858C119.688 15.922 119.851 16.4218 119.86 16.9878H118.078Z" fill="#F6ECEB"/>
</g>
<defs>
<clipPath id="clip0_132_109">
<rect width="120" height="24" fill="white" transform="translate(0 0.420532)"/>
</clipPath>
</defs>
</svg>
