<svg width="85" height="25" viewBox="0 0 85 25" fill="none" xmlns="http://www.w3.org/2000/svg">
<path d="M78.1898 8.9368C77.9828 8.9368 77.7816 8.97954 77.6035 9.0803L71.9681 12.3343C71.6034 12.5444 71.3818 12.9413 71.3818 13.3633V19.8597C71.3818 20.2816 71.6034 20.6778 71.9681 20.8885L73.4398 21.7365C74.1549 22.089 74.4186 22.0833 74.744 22.0833C75.8027 22.0833 76.407 21.441 76.407 20.3246V13.9155C76.407 13.8249 76.3285 13.76 76.2395 13.76H75.5336C75.4431 13.76 75.3662 13.8265 75.3662 13.9155V20.328C75.3662 20.8228 74.8506 21.3206 74.0142 20.9023L72.4843 20.005C72.4302 19.9756 72.3885 19.9219 72.3885 19.8615V13.3651C72.3885 13.3036 72.4297 13.2407 72.4843 13.2096L78.1078 9.96722C78.1605 9.93696 78.2232 9.93696 78.2753 9.96722L83.8988 13.2096C83.9524 13.2417 83.9946 13.3016 83.9946 13.3651V19.8615C83.9946 19.9236 83.9635 19.9871 83.9108 20.017L78.2755 23.2594C78.2256 23.2882 78.159 23.2882 78.108 23.2594L76.6602 22.3981C76.617 22.3728 76.5583 22.3748 76.5167 22.3981C76.1171 22.6246 76.042 22.6508 75.6673 22.7809C75.575 22.813 75.4345 22.863 75.7152 23.0203L77.6056 24.1344C77.7856 24.2385 77.9861 24.2898 78.192 24.2898C78.4007 24.2898 78.5982 24.24 78.7783 24.1344L84.4137 20.892C84.7783 20.6798 85 20.2851 85 19.8632V13.3668C85 12.9447 84.7783 12.5487 84.4137 12.3378L78.7783 9.08379C78.6017 8.98303 78.3992 8.94029 78.192 8.94029L78.1898 8.9368ZM79.6974 13.5789C78.0927 13.5789 77.137 14.2618 77.137 15.3973C77.137 16.6278 78.0855 16.9677 79.6257 17.12C81.4683 17.3004 81.612 17.5709 81.612 17.9336C81.612 18.5626 81.1104 18.8308 79.9249 18.8308C78.4356 18.8308 78.1082 18.459 77.9986 17.7167C77.9856 17.6373 77.9244 17.5732 77.8431 17.5732H77.1114C77.0673 17.5742 77.0253 17.5922 76.9941 17.6234C76.9629 17.6546 76.9449 17.6966 76.9439 17.7407C76.9439 18.689 77.4598 19.8103 79.9232 19.8103C81.7064 19.8103 82.7349 19.112 82.7349 17.8842C82.7349 16.6704 81.9041 16.3423 80.1745 16.1133C78.4284 15.8805 78.2601 15.7691 78.2601 15.3596C78.2601 15.0217 78.4015 14.5698 79.6959 14.5698C80.8522 14.5698 81.2795 14.8192 81.4548 15.5987C81.4701 15.6719 81.5346 15.7317 81.6103 15.7317H82.342C82.3869 15.7317 82.4304 15.7041 82.4617 15.6719C82.4923 15.6374 82.5139 15.5987 82.5096 15.5521C82.3965 14.2096 81.5007 13.5789 79.6974 13.5789Z" fill="#83CD29"/>
<path d="M45.0592 0.420585C44.9963 0.420698 44.9345 0.437202 44.8798 0.468472C44.8255 0.500276 44.7803 0.545692 44.7489 0.600244C44.7174 0.654797 44.7007 0.716604 44.7004 0.779577V9.93181C44.7004 10.0216 44.6585 10.1021 44.5807 10.1471C44.5425 10.1694 44.4992 10.1811 44.455 10.1811C44.4109 10.1811 44.3675 10.1694 44.3294 10.1471L42.8338 9.28582C42.7247 9.2227 42.6008 9.18947 42.4748 9.18947C42.3488 9.18947 42.225 9.2227 42.1159 9.28582L36.1456 12.7312C35.9224 12.8599 35.7864 13.1077 35.7864 13.3653V20.2563C35.7862 20.3824 35.8193 20.5063 35.8824 20.6155C35.9454 20.7247 36.0362 20.8154 36.1454 20.8783L42.1159 24.3239C42.2249 24.3872 42.3487 24.4205 42.4748 24.4205C42.6009 24.4205 42.7247 24.3872 42.8338 24.3239L48.8042 20.8783C48.9135 20.8154 49.0042 20.7247 49.0672 20.6155C49.1303 20.5063 49.1634 20.3824 49.1632 20.2563V3.07653C49.1632 2.81514 49.0205 2.56988 48.7924 2.44252L45.2388 0.456334C45.183 0.42524 45.1211 0.41992 45.0592 0.420585ZM6.65222 9.02244C6.53831 9.02709 6.43138 9.04688 6.32911 9.10624L0.358863 12.5517C0.249494 12.6145 0.158691 12.7051 0.095666 12.8144C0.032641 12.9236 -0.000362862 13.0476 3.00915e-06 13.1737L0.0121424 22.4219C0.0121424 22.5506 0.0786596 22.67 0.191739 22.7328C0.302656 22.7993 0.440181 22.7993 0.550599 22.7328L4.09214 20.6989C4.31664 20.5659 4.46297 20.3338 4.46297 20.077V15.758C4.46297 15.5003 4.5985 15.2641 4.82217 15.1361L6.32978 14.2628C6.43872 14.1995 6.56262 14.1664 6.68864 14.1671C6.81473 14.1663 6.93871 14.1994 7.04767 14.2628L8.55461 15.1356C8.77794 15.2636 8.91347 15.5001 8.91347 15.7575V20.0764C8.91347 20.3334 9.06314 20.5669 9.28431 20.6983L12.8258 22.7322C12.9373 22.7987 13.0745 22.7987 13.1847 22.7322C13.2945 22.669 13.3643 22.5497 13.3643 22.4212L13.3763 13.1734C13.377 13.0472 13.3441 12.9231 13.2811 12.8138C13.218 12.7045 13.127 12.6139 13.0174 12.5513L7.04717 9.10607C6.94623 9.04688 6.8388 9.02692 6.72406 9.02227L6.65222 9.02244ZM60.3023 9.10624C60.1763 9.10589 60.0524 9.13894 59.9433 9.20201L53.9729 12.6476C53.7501 12.7765 53.6137 13.0121 53.6137 13.2695V20.1605C53.6137 20.4196 53.7597 20.6544 53.9845 20.7824L59.9071 24.1578C60.1257 24.2825 60.3926 24.292 60.613 24.1695L64.2024 22.1715C64.3163 22.1083 64.3933 21.9902 64.3936 21.8605C64.394 21.7308 64.3266 21.6141 64.214 21.5496L58.2075 18.104C58.0951 18.0398 58.0163 17.9099 58.0163 17.7809V15.6261C58.0163 15.4974 58.0961 15.3794 58.2075 15.3152L60.074 14.2384C60.1851 14.1742 60.3215 14.1742 60.4332 14.2384L62.3005 15.3152C62.3552 15.3466 62.4006 15.3919 62.4321 15.4465C62.4636 15.5011 62.4801 15.5631 62.4799 15.6261V17.325C62.4798 17.388 62.4963 17.45 62.5278 17.5046C62.5593 17.5592 62.6047 17.6045 62.6594 17.6359C62.7713 17.7004 62.9068 17.7008 63.0186 17.6359L66.5959 15.5546C66.8179 15.4256 66.955 15.1893 66.955 14.9328V13.27C66.9551 13.1439 66.9219 13.0201 66.8589 12.9109C66.7958 12.8017 66.7052 12.711 66.596 12.6479L60.6615 9.20235C60.5524 9.1392 60.4284 9.10581 60.3023 9.10624ZM42.4508 14.2509C42.4842 14.2507 42.5171 14.2589 42.5466 14.2746L44.5925 15.459C44.648 15.4911 44.6882 15.5505 44.6882 15.6145V17.9833C44.6882 18.0476 44.6483 18.1068 44.5925 18.1387L42.5466 19.3231C42.4909 19.3547 42.4228 19.3547 42.367 19.3231L40.3211 18.1387C40.2654 18.1067 40.2253 18.0473 40.2253 17.9833V15.6142C40.2253 15.55 40.2655 15.4911 40.3211 15.4587L42.367 14.2745C42.3949 14.2583 42.4195 14.2509 42.4508 14.2509Z" fill="#404137"/>
<path d="M24.5876 9.07016C24.4615 9.06994 24.3376 9.10298 24.2284 9.16593L18.258 12.5996C18.0348 12.7283 17.8991 12.9762 17.8991 13.2336V20.1246C17.8988 20.2507 17.9318 20.3746 17.9948 20.4838C18.0578 20.5931 18.1486 20.6837 18.258 20.7465L24.2284 24.1921C24.3374 24.2553 24.4613 24.2887 24.5873 24.2887C24.7134 24.2887 24.8372 24.2553 24.9463 24.1921L30.9167 20.7465C31.026 20.6835 31.1167 20.5929 31.1798 20.4837C31.2428 20.3744 31.2759 20.2505 31.2757 20.1244V13.2334C31.2757 12.9757 31.14 12.7279 30.9165 12.5994L24.9461 9.16577C24.837 9.10251 24.7137 9.06962 24.5876 9.07016ZM60.2907 15.2196C60.2669 15.2196 60.2405 15.2196 60.2189 15.2312L59.0703 15.9013C59.0489 15.9132 59.031 15.9305 59.0184 15.9515C59.0057 15.9725 58.9989 15.9964 58.9984 16.0209V17.337C58.9984 17.3865 59.0272 17.4317 59.0703 17.4567L60.2189 18.1146C60.2386 18.1269 60.2613 18.1333 60.2845 18.1333C60.3078 18.1333 60.3305 18.1269 60.3502 18.1146L61.4988 17.4567C61.5414 17.4322 61.5706 17.3865 61.5706 17.337V16.0209C61.5706 15.9713 61.5415 15.9261 61.4988 15.9012L60.3502 15.2311C60.3289 15.2184 60.3146 15.2196 60.2907 15.2196Z" fill="#83CD29"/>
</svg>
