<svg width="128" height="25" viewBox="0 0 128 25" fill="none" xmlns="http://www.w3.org/2000/svg">
<path d="M34.4352 12.4977H29.7936V7.8297H34.6872C36.4784 7.8297 37.374 8.6197 37.374 10.2001C37.374 11.7321 36.394 12.4985 34.4352 12.4985M37.7712 7.7753C37.1312 7.2057 36.2452 6.9209 35.1016 6.9209L28.4544 6.9577V18.1257H29.7936L29.7816 13.3713H34.728C35.968 13.3713 36.9448 13.0865 37.6572 12.5169C38.3696 11.9473 38.726 11.1569 38.726 10.1461C38.726 9.1353 38.408 8.3453 37.772 7.7753H37.7712ZM46.44 15.7805C46.3119 16.1458 46.0932 16.4727 45.8044 16.7305C45.2044 17.3161 44.2892 17.6085 43.058 17.6085C41.946 17.6085 41.0932 17.3285 40.498 16.7549C39.9028 16.1813 39.6048 15.4241 39.6048 14.4697C39.6048 13.9729 39.6828 13.5317 39.8384 13.1469C39.994 12.7621 40.22 12.4373 40.516 12.1725C41.132 11.6113 41.9792 11.3305 43.0584 11.3305C45.4488 11.3305 46.6444 12.3769 46.6444 14.4697C46.6444 14.9669 46.5764 15.4037 46.4444 15.7805M46.6872 11.6605C45.8712 10.9165 44.6632 10.5405 43.0624 10.5405C41.5504 10.5405 40.3816 10.9205 39.5576 11.6805C38.8136 12.3685 38.4376 13.2965 38.4376 14.4653C38.4376 15.6253 38.8216 16.5613 39.5896 17.2733C40.0136 17.6573 40.5076 17.9357 41.072 18.1077C41.6364 18.2797 42.2984 18.3657 43.0584 18.3657C44.6504 18.3657 45.8584 17.9977 46.6952 17.2617C47.4392 16.5897 47.8152 15.6617 47.8152 14.4649C47.8152 13.2649 47.4392 12.3289 46.6872 11.6561V11.6605ZM56.8144 16.1033C56.8144 17.6065 55.4676 18.3581 52.7744 18.3581C51.9512 18.3581 51.2576 18.3061 50.6944 18.2013C50.1312 18.0965 49.6732 17.9233 49.3216 17.6821C49.0502 17.4985 48.8279 17.2513 48.674 16.9621C48.514 16.6661 48.41 16.2941 48.362 15.8421L49.6152 15.8301C49.6152 16.4221 49.8344 16.8573 50.2732 17.1373C50.744 17.4733 51.5772 17.6413 52.7744 17.6413C54.6568 17.6413 55.5984 17.1693 55.5984 16.2261C55.5984 15.6741 55.2784 15.2949 54.6512 15.0861C54.5232 15.0461 53.762 14.9401 52.3712 14.7685C50.9804 14.5969 50.1072 14.4425 49.764 14.3065C49.0208 14.0105 48.6492 13.4785 48.6492 12.7113C48.6492 11.9593 48.9812 11.3993 49.6492 11.0321C49.9772 10.8801 50.3872 10.7625 50.8796 10.6781C51.372 10.5937 51.942 10.5521 52.59 10.5521C55.1828 10.5521 56.4792 11.3657 56.4792 12.9921H55.2872C55.2872 11.8481 54.3752 11.2721 52.5532 11.2721C51.626 11.2721 50.9344 11.3921 50.4788 11.6201C50.0232 11.8481 49.7956 12.2081 49.7956 12.6881C49.7956 13.1361 50.1036 13.4601 50.7188 13.6601C51.0788 13.7641 51.906 13.8841 53.2012 14.0201C54.3604 14.1241 55.156 14.2721 55.5876 14.4601C56.4116 14.7801 56.8228 15.3241 56.8228 16.0909L56.8144 16.1033ZM61.7368 18.1405L61.2268 18.2125L60.9088 18.2365C60.0928 18.2365 59.5088 18.1185 59.1436 17.8817C58.7784 17.6449 58.6024 17.2309 58.6024 16.6417V11.5397H57.12V10.7901H58.5948L58.6068 8.3821H59.7492V10.7901H61.7388V11.5517L59.7492 11.5397V16.4985C59.7492 16.8677 59.8472 17.1225 60.0432 17.2585C60.2392 17.3945 60.5888 17.4689 61.0928 17.4689C61.1648 17.4769 61.2448 17.4745 61.3328 17.4609C61.4662 17.4371 61.5983 17.407 61.7288 17.3705L61.7408 18.1305L61.7368 18.1405ZM69.6388 16.4485C69.3268 16.7045 68.9716 16.8997 68.572 17.0365C68.1724 17.1733 67.7128 17.2365 67.1936 17.2365C64.804 17.2365 63.6096 16.2497 63.6096 14.2765C63.6096 13.3577 63.9152 12.6385 64.5268 12.1189C65.1384 11.5993 65.9988 11.3397 67.11 11.3397C68.2288 11.3397 69.078 11.6017 69.6572 12.1249C70.2364 12.6481 70.5264 13.3497 70.5264 14.2289C70.5264 15.1877 70.2304 15.9269 69.6392 16.4461M71.6692 10.7921H70.5268L70.5148 12.0521C70.0108 11.5401 69.6508 11.2173 69.4348 11.0813C68.7948 10.7293 67.9676 10.5541 66.952 10.5541C65.4648 10.5541 64.3288 10.8941 63.5456 11.5733C62.8016 12.1973 62.4304 13.1001 62.4304 14.2829C62.4304 14.8669 62.5244 15.3877 62.7124 15.8429C62.9004 16.2981 63.1748 16.6921 63.5352 17.0117C64.32 17.6669 65.4292 17.9949 66.8632 17.9949C68.5848 17.9949 69.806 17.5241 70.5272 16.5821V17.8861C70.5272 18.7181 70.2652 19.3613 69.7416 19.8173C69.218 20.2733 68.3564 20.4973 67.1568 20.4973C66.0288 20.4973 65.2256 20.3373 64.746 20.0317C64.386 19.7929 64.138 19.3789 64.002 18.7897H62.826C62.954 19.6125 63.306 20.2077 63.866 20.5749C64.522 20.9981 65.626 21.2097 67.186 21.2097C70.17 21.2097 71.666 20.1005 71.666 17.8817V10.7953L71.6692 10.7921ZM77.8492 11.5333C77.5052 11.4773 77.186 11.4533 76.8908 11.4533C75.0128 11.4533 74.074 12.4833 74.074 14.5425V18.1241H72.9436L72.9316 10.7953L74.0744 10.8065V12.1145H74.1344C74.3264 11.5993 74.6304 11.2085 75.0456 10.9425C75.5008 10.6849 76.18 10.5561 77.0832 10.5561H77.85V11.5401L77.8492 11.5333ZM78.912 13.9965C79.056 13.1637 79.38 12.5189 79.8828 12.0621C80.2108 11.7981 80.5828 11.5993 80.998 11.4673C81.4132 11.3353 81.878 11.2689 82.4012 11.2689C83.4164 11.2689 84.2412 11.5473 84.8892 12.1041C85.5372 12.6609 85.854 13.2921 85.854 13.9961L78.912 13.9965ZM85.9652 11.7353C85.5652 11.3341 85.0692 11.0377 84.4772 10.8449C83.8852 10.6521 83.1972 10.5561 82.3972 10.5561C80.9172 10.5561 79.7692 10.9001 78.9524 11.5881C78.1356 12.2761 77.7284 13.2121 77.7284 14.3969C77.7284 15.5817 78.1204 16.5169 78.9044 17.2169C79.7524 17.9849 80.9444 18.3689 82.4916 18.3689C83.1076 18.3689 83.6768 18.2989 84.2008 18.1597C84.7248 18.0205 85.1828 17.8229 85.5744 17.5677C86.2624 17.0737 86.6976 16.4637 86.8824 15.7397H85.6472C85.2232 16.9929 84.1684 17.6197 82.4816 17.6197C81.2904 17.6197 80.3748 17.3133 79.7356 16.7005C79.1836 16.1753 78.9084 15.4949 78.9084 14.6589H87.0536C87.0536 13.4157 86.6936 12.4409 85.9616 11.7389L85.9652 11.7353Z" fill="white"/>
<path d="M99.128 15.1309C99.128 17.3069 97.3732 18.3949 93.8632 18.3949C91.7604 18.3949 90.2252 18.0201 89.258 17.2749C88.466 16.6589 88.0708 15.7197 88.0708 14.4557H89.4836C89.4836 16.4869 90.9436 17.5025 93.8628 17.5025C95.2628 17.5025 96.2748 17.2945 96.9028 16.8793C97.4308 16.5121 97.6948 15.9365 97.6948 15.1537C97.6948 14.3785 97.3348 13.8353 96.6148 13.5233C96.2068 13.3553 95.2148 13.1433 93.6268 12.8881C91.6348 12.5841 90.3436 12.2809 89.7516 11.9773C88.8956 11.5293 88.4716 10.7705 88.4716 9.69974C88.4716 8.70094 88.8316 7.95774 89.5636 7.47014C90.3476 6.93494 91.6916 6.66694 93.5948 6.66694C97.0348 6.66694 98.7548 7.80934 98.7548 10.0941H97.3296C97.3296 8.38214 96.0524 7.52694 93.4984 7.52694C92.2172 7.52694 91.2804 7.69894 90.688 8.04694C90.1272 8.41494 89.848 8.95494 89.848 9.66694C89.848 10.4109 90.208 10.9349 90.928 11.2389C91.312 11.4149 92.44 11.6589 94.312 11.9709C96.072 12.2349 97.26 12.5429 97.872 12.8909C98.712 13.3229 99.132 14.0709 99.132 15.1309H99.128ZM110.608 16.2413C110.08 16.6641 109.483 16.9813 108.819 17.1933C108.154 17.4053 107.41 17.5105 106.585 17.5105C104.904 17.5105 103.545 17.0573 102.508 16.1513C101.47 15.2453 100.953 14.0377 100.953 12.5285C100.953 10.9557 101.467 9.73014 102.496 8.85174C103.524 7.97334 104.888 7.53454 106.585 7.53454C108.306 7.53454 109.659 7.99374 110.644 8.91174C111.164 9.35974 111.548 9.88214 111.797 10.4809C112.046 11.0797 112.169 11.7625 112.169 12.5289C112.169 14.0937 111.648 15.3313 110.607 16.2409M111.358 16.9817C112.094 16.4625 112.639 15.8337 112.992 15.0945C113.344 14.3553 113.52 13.5025 113.52 12.5353C113.52 10.8013 112.944 9.41534 111.792 8.36414C111.176 7.78894 110.432 7.36134 109.56 7.08174C108.688 6.80214 107.692 6.66174 106.572 6.66174C104.396 6.66174 102.692 7.18974 101.452 8.24374C100.212 9.29774 99.5924 10.7285 99.5924 12.5345C99.5924 14.2921 100.218 15.7105 101.47 16.7889C102.721 17.8673 104.431 18.4069 106.598 18.4069C107.446 18.4069 108.185 18.3497 108.816 18.2349C109.448 18.1201 109.984 17.9441 110.424 17.7069L112.512 19.1537L113.384 18.3529L111.362 16.9821L111.358 16.9817ZM124.098 18.1245H114.44V6.94054L115.767 6.91654V17.1873H124.106L124.094 18.1209L124.098 18.1245Z" fill="#367FAF"/>
<path d="M19.2948 16.2474C19.4292 15.2994 19.3888 15.1602 20.222 15.3138L20.434 15.3298C21.0748 15.3546 21.9128 15.2426 22.4052 15.0486C23.4652 14.6318 24.0932 13.9358 23.0484 14.1186C20.6644 14.5354 20.5004 13.8506 20.5004 13.8506C23.0176 10.6846 24.07 6.66539 23.162 5.68138C20.68 2.99858 16.396 4.26738 16.32 4.30058L16.2972 4.30458C15.826 4.22178 15.2988 4.17258 14.7068 4.16458C13.628 4.14938 12.8096 4.40458 12.1884 4.80338C12.1884 4.80338 4.53801 2.13138 4.89401 8.16338C4.97001 9.44658 7.06401 17.8726 9.56121 15.3274C10.474 14.3966 11.3564 13.6098 11.3564 13.6098C11.8165 13.8675 12.3433 13.9814 12.8688 13.937L12.9112 13.9062C12.898 14.0222 12.9032 14.1342 12.9284 14.2686C12.2852 14.8778 12.474 14.9846 11.1876 15.2094C9.88641 15.4366 10.6508 15.8414 11.15 15.9474C11.7552 16.0754 13.1552 16.2574 14.1012 15.1354L14.0636 15.2634C14.3156 15.4346 14.2988 16.4934 14.3348 17.2502C14.3708 18.007 14.4308 18.713 14.6124 19.1294C14.794 19.5458 15.0092 20.6174 16.6996 20.311C18.1124 20.0542 19.1928 19.685 19.2916 16.249" fill="#231F20"/>
<path d="M19.2948 16.2474C19.4292 15.2994 19.3888 15.1602 20.222 15.3138L20.434 15.3298C21.0748 15.3546 21.9128 15.2426 22.4052 15.0486C23.4652 14.6318 24.0932 13.9358 23.0484 14.1186C20.6644 14.5354 20.5004 13.8506 20.5004 13.8506C23.0176 10.6846 24.07 6.66538 23.162 5.68138C20.68 2.99858 16.396 4.26738 16.32 4.30058L16.2972 4.30458C15.826 4.22178 15.2988 4.17258 14.7068 4.16458C13.628 4.14938 12.8096 4.40458 12.1884 4.80338C12.1884 4.80338 4.53801 2.13138 4.89401 8.16338C4.97001 9.44658 7.06401 17.8726 9.56121 15.3274C10.474 14.3966 11.3564 13.6098 11.3564 13.6098C11.8165 13.8675 12.3433 13.9814 12.8688 13.937L12.9112 13.9062C12.898 14.0222 12.9032 14.1342 12.9284 14.2686C12.2852 14.8778 12.474 14.9846 11.1876 15.2094C9.88641 15.4366 10.6508 15.8414 11.15 15.9474C11.7552 16.0754 13.1552 16.2574 14.1012 15.1354L14.0636 15.2634C14.3156 15.4346 14.2988 16.4934 14.3348 17.2502C14.3708 18.007 14.4308 18.713 14.6124 19.1294C14.794 19.5458 15.0092 20.6174 16.6996 20.311C18.1124 20.0542 19.1928 19.685 19.2916 16.249" stroke="#231F20" stroke-width="4.108"/>
<path d="M23.048 14.1181C20.664 14.5349 20.5 13.8501 20.5 13.8501C23.0172 10.6837 24.0696 6.66453 23.1616 5.68093C20.684 2.99813 16.396 4.26733 16.32 4.30053L16.2968 4.30453C15.8256 4.22173 15.2984 4.17253 14.706 4.16453C13.6272 4.14973 12.8088 4.40453 12.188 4.80333C12.188 4.80333 4.53721 2.13133 4.89321 8.16333C4.96921 9.44653 7.06281 17.8729 9.56041 15.3273C10.4732 14.3965 11.3552 13.6097 11.3552 13.6097C11.8154 13.8674 12.3421 13.9814 12.8676 13.9369L12.9104 13.9061C12.8972 14.0221 12.9032 14.1341 12.9276 14.2685C12.2844 14.8777 12.4732 14.9845 11.1876 15.2093C9.88601 15.4365 10.6508 15.8413 11.15 15.9473C11.7552 16.0753 13.1552 16.2573 14.1012 15.1353L14.0636 15.2633C14.3156 15.4345 14.4928 16.3765 14.4636 17.2313C14.4344 18.0861 14.414 18.6713 14.6128 19.1297C14.8116 19.5881 15.0096 20.6177 16.7008 20.3113C18.1136 20.0545 18.846 19.3897 18.9476 18.2801C19.0196 17.4913 19.1836 17.6081 19.1936 16.9029L19.3248 16.5693C19.476 15.5001 19.3488 15.1553 20.2192 15.3157L20.4312 15.3317C21.072 15.3565 21.9104 15.2445 22.4024 15.0505C23.4624 14.6337 24.0904 13.9377 23.0456 14.1205L23.048 14.1181Z" fill="#417BA2"/>
<path d="M14.2072 14.7314C14.1416 16.7206 14.2232 18.7242 14.4532 19.2114C14.6832 19.6986 15.1748 20.6454 16.866 20.3382C18.2788 20.0814 18.7928 19.5846 19.0156 18.4878C19.1756 17.681 19.4968 15.4398 19.5372 14.981M12.18 4.75777C12.18 4.75777 4.51998 2.10576 4.87998 8.14056C4.95998 9.42376 7.04958 17.8502 9.54798 15.3006C10.4608 14.3698 11.286 13.6398 11.286 13.6398M16.32 4.27377C16.0548 4.34417 20.5788 2.87217 23.1496 5.65657C24.0576 6.64057 23.0056 10.6598 20.488 13.8262" stroke="white" stroke-width="1.369" stroke-linecap="round" stroke-linejoin="round"/>
<path d="M20.4839 13.8258C20.4839 13.8258 20.644 14.5098 23.032 14.093C24.0768 13.9102 23.448 14.6062 22.388 15.0234C21.5184 15.3654 19.5687 15.453 19.5371 14.9806C19.4551 13.7606 20.5631 14.1314 20.4831 13.8258C20.4111 13.5506 19.9151 13.2806 19.5871 12.607C19.3011 12.019 15.6632 7.5102 20.596 8.1798C20.7768 8.1478 19.3091 4.2022 14.6919 4.1382C10.0747 4.0742 10.2279 8.9502 10.2279 8.9502" stroke="white" stroke-width="1.369" stroke-linecap="round" stroke-linejoin="bevel"/>
<path d="M12.9152 14.243C12.2712 14.8522 12.4608 14.959 11.1744 15.1838C9.87278 15.4118 10.6376 15.8158 11.1368 15.9218C11.742 16.0498 13.142 16.2318 14.088 15.109C14.376 14.767 14.0864 14.221 13.6908 14.0826C13.4996 14.0154 13.244 13.9314 12.9148 14.2426L12.9152 14.243Z" stroke="white" stroke-width="1.369" stroke-linejoin="round"/>
<path d="M12.8732 14.2325C12.8084 13.8741 13.012 13.4485 13.2304 12.9493C13.5584 12.2013 14.3152 11.4525 13.7104 9.07853C13.2592 7.30933 10.2316 8.71053 10.2304 8.95053C10.2292 9.19053 10.3672 10.1665 10.1796 11.3025C9.93478 12.7857 11.2928 14.0397 12.8564 13.9117" stroke="white" stroke-width="1.369" stroke-linecap="round" stroke-linejoin="round"/>
<path d="M12.1528 8.91374C12.1392 8.99574 12.33 9.21374 12.5784 9.24334C12.8268 9.27294 13.0384 9.10174 13.0524 9.02014C13.0664 8.93854 12.8756 8.84814 12.6268 8.81854C12.378 8.78894 12.166 8.83214 12.1528 8.91374Z" fill="white" stroke="white" stroke-width="0.456"/>
<path d="M19.7092 8.74698C19.7228 8.82898 19.5324 9.04698 19.2836 9.07658C19.0348 9.10618 18.8228 8.93498 18.8092 8.85258C18.7956 8.77018 18.9864 8.68058 19.2348 8.65098C19.4832 8.62138 19.6948 8.66418 19.7088 8.74618L19.7092 8.74698Z" fill="white" stroke="white" stroke-width="0.228"/>
<path d="M20.5972 8.17969C20.638 8.82249 20.434 9.25969 20.408 9.94449C20.37 10.9389 20.9672 12.0765 20.0672 13.2165" stroke="white" stroke-width="1.369" stroke-linecap="round" stroke-linejoin="round"/>
</svg>
