<svg width="191" height="25" viewBox="0 0 191 25" fill="none" xmlns="http://www.w3.org/2000/svg">
<g clip-path="url(#clip0_132_82)">
<mask id="mask0_132_82" style="mask-type:luminance" maskUnits="userSpaceOnUse" x="0" y="0" width="191" height="24">
<path d="M0 0.420532H191V23.9842H0V0.420532Z" fill="white"/>
</mask>
<g mask="url(#mask0_132_82)">
<path fill-rule="evenodd" clip-rule="evenodd" d="M19.6832 0.420532C14.4344 0.420532 11.1538 3.03871 9.8416 8.27508C11.8099 5.6569 14.1063 4.67508 16.7307 5.32962C18.2281 5.70271 19.2983 6.78708 20.4829 7.98635C22.4126 9.94053 24.6463 12.2024 29.5248 12.2024C34.7737 12.2024 38.0542 9.58417 39.3664 4.3478C37.3981 6.96599 35.1017 7.9478 32.4773 7.29326C30.9799 6.92017 29.9097 5.8358 28.7251 4.63653C26.7954 2.68235 24.5617 0.420532 19.6832 0.420532ZM9.8416 12.2024C4.59275 12.2024 1.31221 14.8205 0 20.0569C1.96832 17.4387 4.26469 16.4569 6.88912 17.1114C8.3865 17.4853 9.45669 18.5689 10.6413 19.7682C12.571 21.7223 14.8047 23.9842 19.6832 23.9842C24.9321 23.9842 28.2126 21.366 29.5248 16.1296C27.5565 18.7478 25.2601 19.7296 22.6357 19.0751C21.1383 18.702 20.0681 17.6176 18.8835 16.4183C16.9538 14.4642 14.7201 12.2024 9.8416 12.2024Z" fill="#38BDF8"/>
<path fill-rule="evenodd" clip-rule="evenodd" d="M59.0467 10.3493H55.6116V16.982C55.6116 18.7508 56.7751 18.7231 59.0467 18.6126V21.2933C54.4481 21.846 52.6198 20.5748 52.6198 16.982V10.3493H50.0712V7.47514H52.6198V3.76314L55.6116 2.87877V7.47514H59.0467V10.3493ZM72.1411 7.47514H75.133V21.2933H72.1411V19.3035C71.0885 20.7682 69.454 21.6526 67.2932 21.6526C63.5257 21.6526 60.3954 18.4744 60.3954 14.3842C60.3954 10.2664 63.5257 7.11587 67.2932 7.11587C69.454 7.11587 71.0885 8.00023 72.1411 9.43732V7.47514ZM67.7642 18.806C70.2574 18.806 72.1411 16.9544 72.1411 14.3842C72.1411 11.814 70.2574 9.96241 67.7642 9.96241C65.271 9.96241 63.3872 11.814 63.3872 14.3842C63.3872 16.9544 65.271 18.806 67.7642 18.806ZM80.1194 5.40241C79.0667 5.40241 78.2079 4.51805 78.2079 3.4955C78.2089 2.99005 78.4106 2.50558 78.7689 2.14818C79.1271 1.79077 79.6127 1.58955 80.1194 1.58859C80.6261 1.58955 81.1117 1.79077 81.4699 2.14818C81.8282 2.50558 82.0299 2.99005 82.0309 3.4955C82.0309 4.51805 81.1721 5.40241 80.1194 5.40241ZM78.6235 21.2933V7.47514H81.6153V21.2933H78.6235ZM85.0781 21.2933V1.11877H88.07V21.2933H85.0781ZM107.489 7.47514H110.647L106.298 21.2933H103.362L100.481 11.9799L97.5718 21.2933H94.6354L90.2861 7.47514H93.4442L96.1313 17.0097L99.0401 7.47514H101.893L104.774 17.0097L107.489 7.47514ZM114.359 5.40241C113.307 5.40241 112.448 4.51805 112.448 3.4955C112.449 2.99005 112.651 2.50558 113.009 2.14818C113.367 1.79077 113.853 1.58955 114.359 1.58859C114.866 1.58955 115.352 1.79077 115.71 2.14818C116.068 2.50558 116.27 2.99005 116.271 3.4955C116.271 4.51805 115.412 5.40241 114.359 5.40241ZM112.864 21.2933V7.47514H115.855V21.2933H112.864ZM126.604 7.11587C129.707 7.11587 131.923 9.21623 131.923 12.809V21.2933H128.931V13.113C128.931 11.0126 127.712 9.90714 125.828 9.90714C123.861 9.90714 122.31 11.0679 122.31 13.8868V21.2933H119.318V7.47514H122.31V9.24387C123.224 7.80677 124.72 7.11587 126.604 7.11587ZM146.106 1.94787H149.098V21.2933H146.106V19.3035C145.054 20.7682 143.419 21.6526 141.258 21.6526C137.491 21.6526 134.36 18.4744 134.36 14.3842C134.36 10.2664 137.491 7.11587 141.258 7.11587C143.419 7.11587 145.054 8.00023 146.106 9.43732V1.94787ZM141.729 18.806C144.223 18.806 146.106 16.9544 146.106 14.3842C146.106 11.814 144.223 9.96241 141.729 9.96241C139.236 9.96241 137.352 11.814 137.352 14.3842C137.352 16.9544 139.236 18.806 141.729 18.806ZM159.126 21.6526C154.943 21.6526 151.813 18.4744 151.813 14.3842C151.813 10.2664 154.943 7.11587 159.126 7.11587C161.841 7.11587 164.196 8.52532 165.304 10.681L162.728 12.1733C162.118 10.8744 160.761 10.0453 159.099 10.0453C156.661 10.0453 154.805 11.897 154.805 14.3842C154.805 16.8715 156.661 18.7231 159.099 18.7231C160.761 18.7231 162.118 17.8664 162.783 16.5951L165.359 18.0599C164.196 20.2431 161.841 21.6526 159.126 21.6526ZM170.29 11.289C170.29 13.8039 177.742 12.2839 177.742 17.3966C177.742 20.1602 175.332 21.6526 172.34 21.6526C169.57 21.6526 167.576 20.409 166.689 18.4191L169.265 16.9268C169.709 18.1704 170.817 18.9166 172.34 18.9166C173.67 18.9166 174.695 18.4744 174.695 17.369C174.695 14.9093 167.243 16.2911 167.243 11.3442C167.243 8.74641 169.487 7.11587 172.313 7.11587C174.584 7.11587 176.468 8.16605 177.438 9.99005L174.917 11.3995C174.418 10.3217 173.448 9.82423 172.313 9.82423C171.232 9.82423 170.29 10.294 170.29 11.289ZM183.061 11.289C183.061 13.8039 190.513 12.2839 190.513 17.3966C190.513 20.1602 188.103 21.6526 185.111 21.6526C182.341 21.6526 180.346 20.409 179.46 18.4191L182.036 16.9268C182.479 18.1704 183.587 18.9166 185.111 18.9166C186.441 18.9166 187.466 18.4744 187.466 17.369C187.466 14.9093 180.014 16.2911 180.014 11.3442C180.014 8.74641 182.258 7.11587 185.083 7.11587C187.355 7.11587 189.239 8.16605 190.208 9.99005L187.687 11.3995C187.189 10.3217 186.219 9.82423 185.083 9.82423C184.003 9.82423 183.061 10.294 183.061 11.289Z" fill="white"/>
</g>
</g>
<defs>
<clipPath id="clip0_132_82">
<rect width="191" height="24" fill="white" transform="translate(0 0.420532)"/>
</clipPath>
</defs>
</svg>
