<svg width="108" height="25" viewBox="0 0 108 25" fill="none" xmlns="http://www.w3.org/2000/svg">
<path d="M21.6563 0.420532H2.34375C1.04933 0.420532 0 1.46986 0 2.76428V22.0768C0 23.3712 1.04933 24.4205 2.34375 24.4205H21.6563C22.9507 24.4205 24 23.3712 24 22.0768V2.76428C24 1.46986 22.9507 0.420532 21.6563 0.420532Z" fill="#3178C6"/>
<path d="M21.6563 0.420532H2.34375C1.04933 0.420532 0 1.46986 0 2.76428V22.0768C0 23.3712 1.04933 24.4205 2.34375 24.4205H21.6563C22.9507 24.4205 24 23.3712 24 22.0768V2.76428C24 1.46986 22.9507 0.420532 21.6563 0.420532Z" fill="#3178C6"/>
<path fill-rule="evenodd" clip-rule="evenodd" d="M14.8565 19.5185V21.8651C15.238 22.0607 15.6892 22.2073 16.21 22.3051C16.7309 22.4029 17.2799 22.4518 17.857 22.4518C18.4194 22.4518 18.9537 22.398 19.4599 22.2904C19.9661 22.1829 20.41 22.0057 20.7915 21.7588C21.1729 21.5119 21.4749 21.1893 21.6975 20.7908C21.92 20.3924 22.0313 19.8999 22.0313 19.3132C22.0313 18.8879 21.9677 18.5151 21.8405 18.1949C21.7133 17.8747 21.53 17.59 21.2903 17.3406C21.0507 17.0913 20.7633 16.8676 20.4283 16.6696C20.0933 16.4716 19.7155 16.2846 19.2949 16.1087C18.9868 15.9815 18.7104 15.8581 18.4659 15.7383C18.2213 15.6185 18.0135 15.4963 17.8423 15.3717C17.6711 15.247 17.5391 15.115 17.4462 14.9757C17.3533 14.8363 17.3068 14.6787 17.3068 14.5027C17.3068 14.3414 17.3483 14.1959 17.4315 14.0664C17.5147 13.9368 17.632 13.8256 17.7836 13.7327C17.9353 13.6398 18.1211 13.5677 18.3412 13.5164C18.5613 13.465 18.8058 13.4394 19.0748 13.4394C19.2704 13.4394 19.477 13.4541 19.6947 13.4834C19.9123 13.5127 20.1312 13.558 20.3513 13.619C20.5714 13.6802 20.7853 13.7572 20.9932 13.85C21.201 13.9429 21.393 14.0505 21.5691 14.1727V11.9801C21.2121 11.8432 20.822 11.7418 20.399 11.6758C19.9759 11.6098 19.4905 11.5768 18.9428 11.5768C18.3852 11.5768 17.857 11.6367 17.3581 11.7565C16.8593 11.8762 16.4204 12.0632 16.0413 12.3174C15.6622 12.5717 15.3627 12.8955 15.1426 13.2891C14.9226 13.6826 14.8125 14.1531 14.8125 14.7007C14.8125 15.3998 15.0143 15.9962 15.4178 16.49C15.8212 16.9837 16.4338 17.4017 17.2554 17.7439C17.5782 17.8759 17.879 18.0055 18.1578 18.1326C18.4365 18.2597 18.6774 18.3917 18.8804 18.5286C19.0833 18.6655 19.2435 18.8146 19.3609 18.9759C19.4783 19.1372 19.537 19.3205 19.537 19.5259C19.537 19.6774 19.5003 19.818 19.4269 19.9475C19.3536 20.0771 19.2423 20.1895 19.0931 20.2848C18.944 20.3802 18.7581 20.4547 18.5356 20.5085C18.313 20.5623 18.0526 20.5892 17.7543 20.5892C17.2456 20.5892 16.7419 20.5 16.243 20.3215C15.7442 20.1431 15.282 19.8754 14.8565 19.5185ZM10.9116 13.7369H13.9219V11.8112H5.53125V13.7369H8.52684V22.3112H10.9116V13.7369Z" fill="white"/>
<path d="M37.9688 6.54553V17.9205H35.8281V6.54553H37.9688ZM41.5 6.54553V8.24084H32.3359V6.54553H41.5ZM44.6406 16.983L46.9062 9.46741H49.1172L45.7266 19.2018C45.6484 19.4101 45.5469 19.6367 45.4219 19.8815C45.3021 20.1263 45.1406 20.358 44.9375 20.5768C44.7344 20.8007 44.4792 20.983 44.1719 21.1237C43.8698 21.2643 43.5026 21.3346 43.0703 21.3346C42.8828 21.3346 42.7161 21.3216 42.5703 21.2955C42.4245 21.2695 42.2708 21.2356 42.1094 21.194V19.6471C42.1615 19.6523 42.2214 19.6549 42.2891 19.6549C42.362 19.6601 42.4245 19.6627 42.4766 19.6627C42.7786 19.6627 43.0286 19.6263 43.2266 19.5533C43.4245 19.4856 43.5833 19.3737 43.7031 19.2174C43.8281 19.0664 43.9323 18.8684 44.0156 18.6237L44.6406 16.983ZM43.5234 9.46741L45.4375 15.694L45.7734 17.8737L44.3516 18.1315L41.2969 9.46741H43.5234ZM52.1797 11.0924V21.1705H50.1094V9.46741H52.0234L52.1797 11.0924ZM57.6094 13.608V13.7721C57.6094 14.3867 57.5365 14.957 57.3906 15.483C57.25 16.0039 57.0417 16.4596 56.7656 16.8502C56.4896 17.2356 56.1458 17.5377 55.7344 17.7565C55.3281 17.97 54.8594 18.0768 54.3281 18.0768C53.8073 18.0768 53.3542 17.9778 52.9688 17.7799C52.5833 17.5768 52.2578 17.2903 51.9922 16.9205C51.7266 16.5507 51.513 16.1211 51.3516 15.6315C51.1953 15.1367 51.0781 14.5976 51 14.0143V13.4908C51.0781 12.8711 51.1953 12.3086 51.3516 11.8033C51.513 11.2929 51.7266 10.8528 51.9922 10.483C52.2578 10.108 52.5807 9.81897 52.9609 9.61584C53.3464 9.41272 53.7969 9.31116 54.3125 9.31116C54.849 9.31116 55.3203 9.41272 55.7266 9.61584C56.138 9.81897 56.4844 10.1106 56.7656 10.4908C57.0469 10.8711 57.2578 11.3242 57.3984 11.8502C57.5391 12.3763 57.6094 12.9622 57.6094 13.608ZM55.5391 13.7721V13.608C55.5391 13.233 55.5052 12.8867 55.4375 12.569C55.3698 12.2461 55.2656 11.9648 55.125 11.7252C54.9844 11.4804 54.8021 11.2903 54.5781 11.1549C54.3542 11.0195 54.0833 10.9518 53.7656 10.9518C53.4479 10.9518 53.1745 11.0039 52.9453 11.108C52.7161 11.2122 52.5286 11.3606 52.3828 11.5533C52.237 11.7461 52.1224 11.9752 52.0391 12.2408C51.9609 12.5013 51.9089 12.7903 51.8828 13.108V14.4049C51.9297 14.7903 52.0208 15.1367 52.1562 15.444C52.2917 15.7513 52.4896 15.9961 52.75 16.1783C53.0156 16.3606 53.3594 16.4518 53.7812 16.4518C54.099 16.4518 54.3698 16.3815 54.5938 16.2408C54.8177 16.1002 55 15.9075 55.1406 15.6627C55.2812 15.4127 55.3828 15.1263 55.4453 14.8033C55.5078 14.4804 55.5391 14.1367 55.5391 13.7721ZM62.9141 18.0768C62.2734 18.0768 61.6979 17.9726 61.1875 17.7643C60.6771 17.5559 60.2422 17.2669 59.8828 16.8971C59.5286 16.5221 59.2552 16.0872 59.0625 15.5924C58.875 15.0924 58.7812 14.5559 58.7812 13.983V13.6705C58.7812 13.0195 58.875 12.4283 59.0625 11.8971C59.25 11.3606 59.5156 10.8997 59.8594 10.5143C60.2031 10.1289 60.6146 9.83199 61.0938 9.62366C61.5729 9.41532 62.1016 9.31116 62.6797 9.31116C63.2786 9.31116 63.8073 9.41272 64.2656 9.61584C64.724 9.81376 65.1068 10.095 65.4141 10.4596C65.7214 10.8242 65.9531 11.2617 66.1094 11.7721C66.2656 12.2773 66.3438 12.8372 66.3438 13.4518V14.319H59.7188V12.8971H64.3125V12.7408C64.3021 12.4127 64.2396 12.1132 64.125 11.8424C64.0104 11.5664 63.8333 11.3476 63.5938 11.1862C63.3542 11.0195 63.0443 10.9362 62.6641 10.9362C62.3568 10.9362 62.0885 11.0039 61.8594 11.1393C61.6354 11.2695 61.4479 11.457 61.2969 11.7018C61.151 11.9414 61.0417 12.2278 60.9688 12.5612C60.8958 12.8945 60.8594 13.2643 60.8594 13.6705V13.983C60.8594 14.3372 60.9062 14.6653 61 14.9674C61.099 15.2695 61.2422 15.5325 61.4297 15.7565C61.6224 15.9752 61.8516 16.1471 62.1172 16.2721C62.388 16.3919 62.6953 16.4518 63.0391 16.4518C63.4714 16.4518 63.862 16.3684 64.2109 16.2018C64.5651 16.0299 64.8724 15.7773 65.1328 15.444L66.1719 16.5221C65.9948 16.7825 65.7552 17.0325 65.4531 17.2721C65.1562 17.5117 64.7969 17.707 64.375 17.858C63.9531 18.0039 63.4661 18.0768 62.9141 18.0768ZM72.375 15.608C72.375 15.4309 72.3281 15.2721 72.2344 15.1315C72.1406 14.9908 71.9635 14.8632 71.7031 14.7487C71.4479 14.6289 71.0729 14.5169 70.5781 14.4127C70.1406 14.319 69.737 14.2018 69.3672 14.0612C68.9974 13.9205 68.6797 13.7513 68.4141 13.5533C68.1484 13.3502 67.9401 13.1132 67.7891 12.8424C67.6432 12.5664 67.5703 12.2487 67.5703 11.8893C67.5703 11.5403 67.6458 11.2122 67.7969 10.9049C67.9479 10.5924 68.1667 10.319 68.4531 10.0846C68.7396 9.84501 69.0885 9.65751 69.5 9.52209C69.9115 9.38147 70.375 9.31116 70.8906 9.31116C71.6094 9.31116 72.2266 9.42834 72.7422 9.66272C73.263 9.89709 73.6615 10.22 73.9375 10.6315C74.2135 11.0377 74.3516 11.4961 74.3516 12.0065H72.2891C72.2891 11.7825 72.237 11.5794 72.1328 11.3971C72.0339 11.2148 71.8802 11.069 71.6719 10.9596C71.4635 10.845 71.2005 10.7877 70.8828 10.7877C70.5964 10.7877 70.3542 10.8346 70.1562 10.9283C69.9635 11.0221 69.8177 11.1445 69.7188 11.2955C69.6198 11.4466 69.5703 11.6132 69.5703 11.7955C69.5703 11.9309 69.5964 12.0533 69.6484 12.1627C69.7057 12.2669 69.7969 12.3632 69.9219 12.4518C70.0469 12.5403 70.2161 12.6211 70.4297 12.694C70.6484 12.7669 70.9167 12.8372 71.2344 12.9049C71.8646 13.0299 72.4141 13.1966 72.8828 13.4049C73.3568 13.608 73.7266 13.8789 73.9922 14.2174C74.2578 14.5559 74.3906 14.9882 74.3906 15.5143C74.3906 15.8893 74.3099 16.233 74.1484 16.5455C73.987 16.8528 73.7526 17.1211 73.4453 17.3502C73.138 17.5794 72.7708 17.7591 72.3438 17.8893C71.9167 18.0143 71.4349 18.0768 70.8984 18.0768C70.1224 18.0768 69.4661 17.9388 68.9297 17.6627C68.3932 17.3815 67.987 17.0273 67.7109 16.6002C67.4349 16.1679 67.2969 15.72 67.2969 15.2565H69.2734C69.2891 15.5846 69.3776 15.8476 69.5391 16.0455C69.7005 16.2434 69.9036 16.3867 70.1484 16.4752C70.3984 16.5586 70.6615 16.6002 70.9375 16.6002C71.25 16.6002 71.513 16.5586 71.7266 16.4752C71.9401 16.3867 72.1016 16.2695 72.2109 16.1237C72.3203 15.9726 72.375 15.8007 72.375 15.608ZM79.4297 16.4518C79.7214 16.4518 79.9818 16.3945 80.2109 16.2799C80.4401 16.1653 80.6224 16.0039 80.7578 15.7955C80.8984 15.5872 80.974 15.345 80.9844 15.069H82.9297C82.9193 15.6419 82.7578 16.1549 82.4453 16.608C82.1328 17.0612 81.7161 17.4205 81.1953 17.6862C80.6797 17.9466 80.1016 18.0768 79.4609 18.0768C78.8099 18.0768 78.2422 17.9674 77.7578 17.7487C77.2734 17.5299 76.8698 17.2252 76.5469 16.8346C76.2292 16.444 75.9896 15.9908 75.8281 15.4752C75.6719 14.9596 75.5938 14.4075 75.5938 13.819V13.569C75.5938 12.9804 75.6719 12.4283 75.8281 11.9127C75.9896 11.3971 76.2292 10.944 76.5469 10.5533C76.8698 10.1627 77.2734 9.85803 77.7578 9.63928C78.2422 9.42053 78.8073 9.31116 79.4531 9.31116C80.1354 9.31116 80.7344 9.44397 81.25 9.70959C81.7708 9.97522 82.1771 10.3502 82.4688 10.8346C82.7656 11.319 82.9193 11.8893 82.9297 12.5455H80.9844C80.974 12.2434 80.9062 11.9726 80.7812 11.733C80.6562 11.4934 80.4792 11.3007 80.25 11.1549C80.0208 11.0091 79.7422 10.9362 79.4141 10.9362C79.0651 10.9362 78.7734 11.0091 78.5391 11.1549C78.3099 11.3007 78.1302 11.5013 78 11.7565C77.875 12.0065 77.7865 12.2877 77.7344 12.6002C77.6875 12.9075 77.6641 13.2304 77.6641 13.569V13.819C77.6641 14.1627 77.6875 14.4908 77.7344 14.8033C77.7865 15.1158 77.875 15.3971 78 15.6471C78.1302 15.8919 78.3099 16.0872 78.5391 16.233C78.7734 16.3789 79.0703 16.4518 79.4297 16.4518ZM86.3672 11.194V17.9205H84.3047V9.46741H86.2578L86.3672 11.194ZM88.9375 9.41272L88.9062 11.3346C88.7917 11.3138 88.6615 11.2981 88.5156 11.2877C88.375 11.2773 88.2422 11.2721 88.1172 11.2721C87.7995 11.2721 87.5208 11.3164 87.2812 11.4049C87.0417 11.4882 86.8411 11.6106 86.6797 11.7721C86.5234 11.9336 86.4036 12.1315 86.3203 12.3658C86.237 12.595 86.1901 12.8554 86.1797 13.1471L85.7344 13.0924C85.7344 12.5559 85.7891 12.0586 85.8984 11.6002C86.0078 11.1419 86.1667 10.7408 86.375 10.3971C86.5833 10.0533 86.8438 9.78772 87.1562 9.60022C87.474 9.40751 87.8385 9.31116 88.25 9.31116C88.3646 9.31116 88.487 9.32157 88.6172 9.34241C88.7526 9.35803 88.8594 9.38147 88.9375 9.41272ZM92.2578 9.46741V17.9205H90.1875V9.46741H92.2578ZM90.0469 7.25647C90.0469 6.94918 90.151 6.69397 90.3594 6.49084C90.5729 6.28772 90.8594 6.18616 91.2188 6.18616C91.5781 6.18616 91.862 6.28772 92.0703 6.49084C92.2839 6.69397 92.3906 6.94918 92.3906 7.25647C92.3906 7.55855 92.2839 7.81116 92.0703 8.01428C91.862 8.21741 91.5781 8.31897 91.2188 8.31897C90.8594 8.31897 90.5729 8.21741 90.3594 8.01428C90.151 7.81116 90.0469 7.55855 90.0469 7.25647ZM96.2891 11.0924V21.1705H94.2188V9.46741H96.1328L96.2891 11.0924ZM101.719 13.608V13.7721C101.719 14.3867 101.646 14.957 101.5 15.483C101.359 16.0039 101.151 16.4596 100.875 16.8502C100.599 17.2356 100.255 17.5377 99.8438 17.7565C99.4375 17.97 98.9688 18.0768 98.4375 18.0768C97.9167 18.0768 97.4635 17.9778 97.0781 17.7799C96.6927 17.5768 96.3672 17.2903 96.1016 16.9205C95.8359 16.5507 95.6224 16.1211 95.4609 15.6315C95.3047 15.1367 95.1875 14.5976 95.1094 14.0143V13.4908C95.1875 12.8711 95.3047 12.3086 95.4609 11.8033C95.6224 11.2929 95.8359 10.8528 96.1016 10.483C96.3672 10.108 96.6901 9.81897 97.0703 9.61584C97.4557 9.41272 97.9062 9.31116 98.4219 9.31116C98.9583 9.31116 99.4297 9.41272 99.8359 9.61584C100.247 9.81897 100.594 10.1106 100.875 10.4908C101.156 10.8711 101.367 11.3242 101.508 11.8502C101.648 12.3763 101.719 12.9622 101.719 13.608ZM99.6484 13.7721V13.608C99.6484 13.233 99.6146 12.8867 99.5469 12.569C99.4792 12.2461 99.375 11.9648 99.2344 11.7252C99.0938 11.4804 98.9115 11.2903 98.6875 11.1549C98.4635 11.0195 98.1927 10.9518 97.875 10.9518C97.5573 10.9518 97.2839 11.0039 97.0547 11.108C96.8255 11.2122 96.638 11.3606 96.4922 11.5533C96.3464 11.7461 96.2318 11.9752 96.1484 12.2408C96.0703 12.5013 96.0182 12.7903 95.9922 13.108V14.4049C96.0391 14.7903 96.1302 15.1367 96.2656 15.444C96.401 15.7513 96.599 15.9961 96.8594 16.1783C97.125 16.3606 97.4688 16.4518 97.8906 16.4518C98.2083 16.4518 98.4792 16.3815 98.7031 16.2408C98.9271 16.1002 99.1094 15.9075 99.25 15.6627C99.3906 15.4127 99.4922 15.1263 99.5547 14.8033C99.6172 14.4804 99.6484 14.1367 99.6484 13.7721ZM107.227 9.46741V10.9518H102.383V9.46741H107.227ZM103.68 7.38928H105.75V15.483C105.75 15.733 105.784 15.9257 105.852 16.0612C105.919 16.1966 106.021 16.2877 106.156 16.3346C106.292 16.3815 106.453 16.4049 106.641 16.4049C106.776 16.4049 106.901 16.3971 107.016 16.3815C107.13 16.3658 107.227 16.3502 107.305 16.3346L107.312 17.8815C107.141 17.9388 106.945 17.9856 106.727 18.0221C106.513 18.0586 106.271 18.0768 106 18.0768C105.536 18.0768 105.13 17.9987 104.781 17.8424C104.432 17.6809 104.161 17.4231 103.969 17.069C103.776 16.7096 103.68 16.2356 103.68 15.6471V7.38928Z" fill="white"/>
</svg>
